<svg width="178" height="58" viewBox="0 0 178 58" fill="none" xmlns="http://www.w3.org/2000/svg">
<path d="M15.755 49.175C16.425 49.175 16.97 49.09 17.39 48.92C17.82 48.75 18.155 48.53 18.395 48.26C18.635 47.99 18.8 47.685 18.89 47.345C18.98 47.005 19.025 46.66 19.025 46.31C19.025 45.91 18.97 45.55 18.86 45.23C18.76 44.91 18.58 44.64 18.32 44.42C18.07 44.2 17.735 44.03 17.315 43.91C16.895 43.79 16.365 43.73 15.725 43.73H12.185V49.175H15.755ZM12.185 34.94V40.34H14.825C15.385 40.34 15.89 40.3 16.34 40.22C16.79 40.14 17.17 40 17.48 39.8C17.8 39.6 18.04 39.325 18.2 38.975C18.37 38.625 18.455 38.185 18.455 37.655C18.455 37.135 18.39 36.705 18.26 36.365C18.13 36.015 17.93 35.735 17.66 35.525C17.39 35.315 17.045 35.165 16.625 35.075C16.215 34.985 15.725 34.94 15.155 34.94H12.185ZM15.155 31.145C16.665 31.145 17.95 31.285 19.01 31.565C20.07 31.845 20.935 32.24 21.605 32.75C22.275 33.26 22.76 33.88 23.06 34.61C23.37 35.34 23.525 36.155 23.525 37.055C23.525 37.545 23.455 38.02 23.315 38.48C23.175 38.93 22.955 39.355 22.655 39.755C22.355 40.145 21.97 40.505 21.5 40.835C21.03 41.165 20.465 41.45 19.805 41.69C21.245 42.04 22.31 42.605 23 43.385C23.69 44.165 24.035 45.175 24.035 46.415C24.035 47.345 23.855 48.21 23.495 49.01C23.135 49.81 22.605 50.51 21.905 51.11C21.215 51.7 20.36 52.165 19.34 52.505C18.32 52.835 17.155 53 15.845 53H7.115V31.145H15.155ZM36.1426 43.355C36.1426 42.985 36.0926 42.625 35.9926 42.275C35.9026 41.925 35.7476 41.615 35.5276 41.345C35.3176 41.065 35.0376 40.84 34.6876 40.67C34.3376 40.5 33.9126 40.415 33.4126 40.415C32.5326 40.415 31.8426 40.67 31.3426 41.18C30.8426 41.68 30.5126 42.405 30.3526 43.355H36.1426ZM30.2926 46.055C30.4426 47.355 30.8376 48.3 31.4776 48.89C32.1176 49.47 32.9426 49.76 33.9526 49.76C34.4926 49.76 34.9576 49.695 35.3476 49.565C35.7376 49.435 36.0826 49.29 36.3826 49.13C36.6926 48.97 36.9726 48.825 37.2226 48.695C37.4826 48.565 37.7526 48.5 38.0326 48.5C38.4026 48.5 38.6826 48.635 38.8726 48.905L40.2226 50.57C39.7426 51.12 39.2226 51.57 38.6626 51.92C38.1126 52.26 37.5426 52.53 36.9526 52.73C36.3726 52.92 35.7876 53.05 35.1976 53.12C34.6176 53.2 34.0626 53.24 33.5326 53.24C32.4426 53.24 31.4176 53.065 30.4576 52.715C29.5076 52.355 28.6726 51.825 27.9526 51.125C27.2426 50.425 26.6776 49.555 26.2576 48.515C25.8476 47.475 25.6426 46.265 25.6426 44.885C25.6426 43.845 25.8176 42.86 26.1676 41.93C26.5276 41 27.0376 40.185 27.6976 39.485C28.3676 38.785 29.1726 38.23 30.1126 37.82C31.0626 37.41 32.1326 37.205 33.3226 37.205C34.3526 37.205 35.2926 37.365 36.1426 37.685C37.0026 38.005 37.7376 38.47 38.3476 39.08C38.9676 39.69 39.4476 40.44 39.7876 41.33C40.1376 42.21 40.3126 43.21 40.3126 44.33C40.3126 44.68 40.2976 44.965 40.2676 45.185C40.2376 45.405 40.1826 45.58 40.1026 45.71C40.0226 45.84 39.9126 45.93 39.7726 45.98C39.6426 46.03 39.4726 46.055 39.2626 46.055H30.2926ZM50.6645 46.67C49.7345 46.71 48.9695 46.79 48.3695 46.91C47.7695 47.03 47.2945 47.18 46.9445 47.36C46.5945 47.54 46.3495 47.745 46.2095 47.975C46.0795 48.205 46.0145 48.455 46.0145 48.725C46.0145 49.255 46.1595 49.63 46.4495 49.85C46.7395 50.06 47.1645 50.165 47.7245 50.165C48.3245 50.165 48.8495 50.06 49.2995 49.85C49.7495 49.64 50.2045 49.3 50.6645 48.83V46.67ZM42.2945 39.605C43.2345 38.775 44.2745 38.16 45.4145 37.76C46.5645 37.35 47.7945 37.145 49.1045 37.145C50.0445 37.145 50.8895 37.3 51.6395 37.61C52.3995 37.91 53.0395 38.335 53.5595 38.885C54.0895 39.425 54.4945 40.07 54.7745 40.82C55.0545 41.57 55.1945 42.39 55.1945 43.28V53H53.0645C52.6245 53 52.2895 52.94 52.0595 52.82C51.8395 52.7 51.6545 52.45 51.5045 52.07L51.1745 51.215C50.7845 51.545 50.4095 51.835 50.0495 52.085C49.6895 52.335 49.3145 52.55 48.9245 52.73C48.5445 52.9 48.1345 53.025 47.6945 53.105C47.2645 53.195 46.7845 53.24 46.2545 53.24C45.5445 53.24 44.8995 53.15 44.3195 52.97C43.7395 52.78 43.2445 52.505 42.8345 52.145C42.4345 51.785 42.1245 51.34 41.9045 50.81C41.6845 50.27 41.5745 49.65 41.5745 48.95C41.5745 48.39 41.7145 47.825 41.9945 47.255C42.2745 46.675 42.7595 46.15 43.4495 45.68C44.1395 45.2 45.0695 44.8 46.2395 44.48C47.4095 44.16 48.8845 43.98 50.6645 43.94V43.28C50.6645 42.37 50.4745 41.715 50.0945 41.315C49.7245 40.905 49.1945 40.7 48.5045 40.7C47.9545 40.7 47.5045 40.76 47.1545 40.88C46.8045 41 46.4895 41.135 46.2095 41.285C45.9395 41.435 45.6745 41.57 45.4145 41.69C45.1545 41.81 44.8445 41.87 44.4845 41.87C44.1645 41.87 43.8945 41.79 43.6745 41.63C43.4545 41.47 43.2745 41.28 43.1345 41.06L42.2945 39.605ZM69.5968 41.135C69.4568 41.305 69.3218 41.44 69.1918 41.54C69.0618 41.64 68.8768 41.69 68.6368 41.69C68.4068 41.69 68.1968 41.635 68.0068 41.525C67.8268 41.415 67.6218 41.295 67.3918 41.165C67.1618 41.025 66.8918 40.9 66.5818 40.79C66.2718 40.68 65.8868 40.625 65.4268 40.625C64.8568 40.625 64.3618 40.73 63.9418 40.94C63.5318 41.15 63.1918 41.45 62.9218 41.84C62.6518 42.23 62.4518 42.71 62.3218 43.28C62.1918 43.84 62.1268 44.475 62.1268 45.185C62.1268 46.675 62.4118 47.82 62.9818 48.62C63.5618 49.42 64.3568 49.82 65.3668 49.82C65.9068 49.82 66.3318 49.755 66.6418 49.625C66.9618 49.485 67.2318 49.335 67.4518 49.175C67.6718 49.005 67.8718 48.85 68.0518 48.71C68.2418 48.57 68.4768 48.5 68.7568 48.5C69.1268 48.5 69.4068 48.635 69.5968 48.905L70.9468 50.57C70.4668 51.12 69.9618 51.57 69.4318 51.92C68.9018 52.26 68.3568 52.53 67.7968 52.73C67.2468 52.92 66.6918 53.05 66.1318 53.12C65.5718 53.2 65.0268 53.24 64.4968 53.24C63.5468 53.24 62.6368 53.06 61.7668 52.7C60.9068 52.34 60.1468 51.82 59.4868 51.14C58.8368 50.45 58.3168 49.605 57.9268 48.605C57.5468 47.605 57.3568 46.465 57.3568 45.185C57.3568 44.065 57.5218 43.02 57.8518 42.05C58.1918 41.07 58.6868 40.225 59.3368 39.515C59.9968 38.795 60.8068 38.23 61.7668 37.82C62.7368 37.41 63.8568 37.205 65.1268 37.205C66.3468 37.205 67.4168 37.4 68.3368 37.79C69.2568 38.18 70.0868 38.75 70.8268 39.5L69.5968 41.135ZM77.4066 38.81C77.9666 38.33 78.5716 37.945 79.2216 37.655C79.8816 37.355 80.6666 37.205 81.5766 37.205C82.4266 37.205 83.1766 37.355 83.8266 37.655C84.4866 37.945 85.0416 38.355 85.4916 38.885C85.9416 39.405 86.2816 40.03 86.5116 40.76C86.7416 41.48 86.8566 42.265 86.8566 43.115V53H82.2066V43.115C82.2066 42.355 82.0316 41.765 81.6816 41.345C81.3316 40.915 80.8166 40.7 80.1366 40.7C79.6266 40.7 79.1466 40.81 78.6966 41.03C78.2566 41.24 77.8266 41.53 77.4066 41.9V53H72.7566V30.545H77.4066V38.81ZM116.429 31.145V53H111.329V43.76H102.449V53H97.3494V31.145H102.449V40.28H111.329V31.145H116.429ZM126.831 37.205C128.011 37.205 129.086 37.39 130.056 37.76C131.026 38.13 131.856 38.66 132.546 39.35C133.246 40.04 133.786 40.88 134.166 41.87C134.556 42.85 134.751 43.955 134.751 45.185C134.751 46.425 134.556 47.545 134.166 48.545C133.786 49.535 133.246 50.38 132.546 51.08C131.856 51.77 131.026 52.305 130.056 52.685C129.086 53.055 128.011 53.24 126.831 53.24C125.641 53.24 124.556 53.055 123.576 52.685C122.606 52.305 121.766 51.77 121.056 51.08C120.356 50.38 119.811 49.535 119.421 48.545C119.041 47.545 118.851 46.425 118.851 45.185C118.851 43.955 119.041 42.85 119.421 41.87C119.811 40.88 120.356 40.04 121.056 39.35C121.766 38.66 122.606 38.13 123.576 37.76C124.556 37.39 125.641 37.205 126.831 37.205ZM126.831 49.79C127.901 49.79 128.686 49.415 129.186 48.665C129.696 47.905 129.951 46.755 129.951 45.215C129.951 43.675 129.696 42.53 129.186 41.78C128.686 41.03 127.901 40.655 126.831 40.655C125.731 40.655 124.926 41.03 124.416 41.78C123.906 42.53 123.651 43.675 123.651 45.215C123.651 46.755 123.906 47.905 124.416 48.665C124.926 49.415 125.731 49.79 126.831 49.79ZM142.335 53.24C141.595 53.24 140.94 53.135 140.37 52.925C139.81 52.705 139.335 52.4 138.945 52.01C138.565 51.61 138.275 51.13 138.075 50.57C137.875 50.01 137.775 49.385 137.775 48.695V40.655H136.455C136.215 40.655 136.01 40.58 135.84 40.43C135.67 40.27 135.585 40.04 135.585 39.74V37.925L138.06 37.445L138.975 33.65C139.095 33.17 139.435 32.93 139.995 32.93H142.425V37.475H146.28V40.655H142.425V48.38C142.425 48.74 142.51 49.04 142.68 49.28C142.86 49.51 143.115 49.625 143.445 49.625C143.615 49.625 143.755 49.61 143.865 49.58C143.985 49.54 144.085 49.5 144.165 49.46C144.255 49.41 144.335 49.37 144.405 49.34C144.485 49.3 144.575 49.28 144.675 49.28C144.815 49.28 144.925 49.315 145.005 49.385C145.095 49.445 145.185 49.545 145.275 49.685L146.685 51.89C146.085 52.34 145.41 52.68 144.66 52.91C143.91 53.13 143.135 53.24 142.335 53.24ZM157.813 43.355C157.813 42.985 157.763 42.625 157.663 42.275C157.573 41.925 157.418 41.615 157.198 41.345C156.988 41.065 156.708 40.84 156.358 40.67C156.008 40.5 155.583 40.415 155.083 40.415C154.203 40.415 153.513 40.67 153.013 41.18C152.513 41.68 152.183 42.405 152.023 43.355H157.813ZM151.963 46.055C152.113 47.355 152.508 48.3 153.148 48.89C153.788 49.47 154.613 49.76 155.623 49.76C156.163 49.76 156.628 49.695 157.018 49.565C157.408 49.435 157.753 49.29 158.053 49.13C158.363 48.97 158.643 48.825 158.893 48.695C159.153 48.565 159.423 48.5 159.703 48.5C160.073 48.5 160.353 48.635 160.543 48.905L161.893 50.57C161.413 51.12 160.893 51.57 160.333 51.92C159.783 52.26 159.213 52.53 158.623 52.73C158.043 52.92 157.458 53.05 156.868 53.12C156.288 53.2 155.733 53.24 155.203 53.24C154.113 53.24 153.088 53.065 152.128 52.715C151.178 52.355 150.343 51.825 149.623 51.125C148.913 50.425 148.348 49.555 147.928 48.515C147.518 47.475 147.313 46.265 147.313 44.885C147.313 43.845 147.488 42.86 147.838 41.93C148.198 41 148.708 40.185 149.368 39.485C150.038 38.785 150.843 38.23 151.783 37.82C152.733 37.41 153.803 37.205 154.993 37.205C156.023 37.205 156.963 37.365 157.813 37.685C158.673 38.005 159.408 38.47 160.018 39.08C160.638 39.69 161.118 40.44 161.458 41.33C161.808 42.21 161.982 43.21 161.982 44.33C161.982 44.68 161.968 44.965 161.938 45.185C161.908 45.405 161.853 45.58 161.773 45.71C161.693 45.84 161.583 45.93 161.443 45.98C161.313 46.03 161.143 46.055 160.933 46.055H151.963ZM168.959 30.545V53H164.309V30.545H168.959Z" fill="#F2FAFF"/>
<path d="M88.0063 23.9606C87.9561 23.5083 88.2074 23.0559 88.6597 22.9052C97.2041 20.0906 104.894 15.3158 112.684 10.8928C144.902 -8.65867 150.832 -0.0138007 175.913 21.9502C175.41 23.257 173.4 22.7041 172.294 22.8046C169.982 22.6036 167.72 21.9502 165.609 21.146C157.618 18.1806 150.079 12.6519 141.333 13.6572C124.546 16.3712 105.145 31.2987 88.0063 23.9606Z" fill="#F2FAFF"/>
</svg>
