<svg width="44" height="42" viewBox="0 0 44 42" fill="none" xmlns="http://www.w3.org/2000/svg">
<path d="M20.1585 20C19.4868 19.5233 18.8802 19.0033 18.3818 18.44L15.3485 15.0817C14.9368 14.6267 14.4168 14.2583 13.8535 13.9983C13.2252 13.695 12.5102 13.5 11.7735 13.5H11.7085C9.02183 13.5 6.8335 15.6883 6.8335 18.375V20H0.333496V37.3333C0.333496 39.7167 2.2835 41.6667 4.66683 41.6667H39.3335C41.7168 41.6667 43.6668 39.7167 43.6668 37.3333V20H20.1585ZM11.1668 37.3333H6.8335V24.3333H11.1668V37.3333ZM19.8335 37.3333H15.5002V24.3333H19.8335V37.3333ZM28.5002 37.3333H24.1668V24.3333H28.5002V37.3333ZM37.1668 37.3333H32.8335V24.3333H37.1668V37.3333ZM36.4085 6.69667L36.2568 6.545C35.0218 5.20167 34.4802 3.49 34.8052 1.77833L35.0002 0.5H30.9052L30.7752 1.43167C30.3418 4.37833 31.3602 7.30333 33.5918 9.49167L33.7435 9.62167C34.9785 10.965 35.5202 12.6767 35.1952 14.3883L34.9568 15.6667H39.0952L39.2252 14.735C39.6802 11.7883 38.6402 8.86333 36.4085 6.69667ZM27.7418 6.69667L27.5902 6.545C26.3552 5.20167 25.8135 3.49 26.1385 1.77833L26.3335 0.5H22.2385L22.1085 1.43167C21.6752 4.37833 22.6935 7.30333 24.9252 9.49167L25.0768 9.62167C26.3118 10.965 26.8535 12.6767 26.5285 14.3883L26.2902 15.6667H30.4285L30.5585 14.735C31.0135 11.7883 29.9735 8.86333 27.7418 6.69667Z" fill="#1C1715"/>
</svg>
