<svg width="28" height="35" viewBox="0 0 28 35" fill="none" xmlns="http://www.w3.org/2000/svg">
<path d="M18.9525 16.0475C21.6825 18.7775 21.6825 23.2225 18.9525 25.9525C16.2225 28.6825 11.7775 28.6825 9.0475 25.9525L18.9525 16.0475ZM3.5 0H24.5C25.4283 0 26.3185 0.368749 26.9749 1.02513C27.6313 1.6815 28 2.57174 28 3.5V31.5C28 32.4283 27.6313 33.3185 26.9749 33.9749C26.3185 34.6312 25.4283 35 24.5 35H3.5C2.57174 35 1.6815 34.6312 1.02513 33.9749C0.368749 33.3185 0 32.4283 0 31.5V3.5C0 2.57174 0.368749 1.6815 1.02513 1.02513C1.6815 0.368749 2.57174 0 3.5 0ZM5.25 3.5C4.78587 3.5 4.34075 3.68437 4.01256 4.01256C3.68437 4.34075 3.5 4.78587 3.5 5.25C3.5 5.71413 3.68437 6.15925 4.01256 6.48744C4.34075 6.81563 4.78587 7 5.25 7C5.71413 7 6.15925 6.81563 6.48744 6.48744C6.81563 6.15925 7 5.71413 7 5.25C7 4.78587 6.81563 4.34075 6.48744 4.01256C6.15925 3.68437 5.71413 3.5 5.25 3.5ZM10.5 3.5C10.0359 3.5 9.59075 3.68437 9.26256 4.01256C8.93437 4.34075 8.75 4.78587 8.75 5.25C8.75 5.71413 8.93437 6.15925 9.26256 6.48744C9.59075 6.81563 10.0359 7 10.5 7C10.9641 7 11.4092 6.81563 11.7374 6.48744C12.0656 6.15925 12.25 5.71413 12.25 5.25C12.25 4.78587 12.0656 4.34075 11.7374 4.01256C11.4092 3.68437 10.9641 3.5 10.5 3.5ZM14 10.5C11.2152 10.5 8.54451 11.6062 6.57538 13.5754C4.60625 15.5445 3.5 18.2152 3.5 21C3.5 23.7848 4.60625 26.4555 6.57538 28.4246C8.54451 30.3938 11.2152 31.5 14 31.5C16.7848 31.5 19.4555 30.3938 21.4246 28.4246C23.3938 26.4555 24.5 23.7848 24.5 21C24.5 18.2152 23.3938 15.5445 21.4246 13.5754C19.4555 11.6062 16.7848 10.5 14 10.5Z" fill="#171818"/>
</svg>
