<svg width="38" height="36" viewBox="0 0 38 36" fill="none" xmlns="http://www.w3.org/2000/svg">
<path d="M0.666504 0.333344V35.3333H3.99984V32H33.9998V35.3333H37.3332V8.66668C37.3332 4.98334 34.3498 2.00001 30.6665 2.00001H15.6665V10.3333H3.99984V0.333344H0.666504ZM9.83317 0.333344C8.7281 0.333344 7.66829 0.77233 6.88689 1.55373C6.10549 2.33513 5.6665 3.39494 5.6665 4.50001C5.6665 5.60508 6.10549 6.66489 6.88689 7.44629C7.66829 8.22769 8.7281 8.66668 9.83317 8.66668C10.3803 8.66668 10.9222 8.5589 11.4277 8.34951C11.9332 8.14011 12.3925 7.8332 12.7794 7.44629C13.1664 7.05938 13.4733 6.60005 13.6827 6.09452C13.8921 5.589 13.9998 5.04718 13.9998 4.50001C13.9998 3.39494 13.5608 2.33513 12.7794 1.55373C11.998 0.77233 10.9382 0.333344 9.83317 0.333344ZM3.99984 15.3333H33.9998V19.6C33.0165 19.0167 31.8832 18.6667 30.6665 18.6667H15.6665V27H3.99984V15.3333ZM9.83317 17C8.7281 17 7.66829 17.439 6.88689 18.2204C6.10549 19.0018 5.6665 20.0616 5.6665 21.1667C5.6665 22.2717 6.10549 23.3316 6.88689 24.113C7.66829 24.8944 8.7281 25.3333 9.83317 25.3333C10.9382 25.3333 11.998 24.8944 12.7794 24.113C13.5608 23.3316 13.9998 22.2717 13.9998 21.1667C13.9998 20.0616 13.5608 19.0018 12.7794 18.2204C11.998 17.439 10.9382 17 9.83317 17Z" fill="#171818"/>
</svg>
