<svg width="30" height="40" viewBox="0 0 30 40" fill="none" xmlns="http://www.w3.org/2000/svg">
<path d="M15 30.4762C15.9946 30.4762 16.9484 30.0748 17.6516 29.3604C18.3549 28.646 18.75 27.677 18.75 26.6667C18.75 24.5524 17.0625 22.8571 15 22.8571C14.0054 22.8571 13.0516 23.2585 12.3484 23.9729C11.6451 24.6874 11.25 25.6563 11.25 26.6667C11.25 27.677 11.6451 28.646 12.3484 29.3604C13.0516 30.0748 14.0054 30.4762 15 30.4762ZM26.25 13.3333C27.2446 13.3333 28.1984 13.7347 28.9016 14.4491C29.6049 15.1635 30 16.1325 30 17.1429V36.1905C30 37.2008 29.6049 38.1698 28.9016 38.8842C28.1984 39.5986 27.2446 40 26.25 40H3.75C2.75544 40 1.80161 39.5986 1.09835 38.8842C0.395088 38.1698 0 37.2008 0 36.1905V17.1429C0 15.0286 1.6875 13.3333 3.75 13.3333H5.625V9.52381C5.625 6.99794 6.61272 4.57552 8.37087 2.78946C10.129 1.0034 12.5136 0 15 0C16.2311 0 17.4502 0.246341 18.5877 0.724957C19.7251 1.20357 20.7586 1.90509 21.6291 2.78946C22.4997 3.67383 23.1902 4.72372 23.6614 5.87921C24.1325 7.03469 24.375 8.27312 24.375 9.52381V13.3333H26.25ZM15 3.80952C13.5082 3.80952 12.0774 4.41156 11.0225 5.4832C9.96763 6.55484 9.375 8.00829 9.375 9.52381V13.3333H20.625V9.52381C20.625 8.00829 20.0324 6.55484 18.9775 5.4832C17.9226 4.41156 16.4918 3.80952 15 3.80952Z" fill="#171818"/>
</svg>
