<svg width="34" height="35" viewBox="0 0 34 35" fill="none" xmlns="http://www.w3.org/2000/svg">
<path d="M29.0857 20.9997C29.5647 21.6996 30.3838 22.1663 31.2956 22.1663C32.7946 22.1663 34 20.953 34 19.4441C34 17.9353 32.7946 16.7219 31.2956 16.7219C30.3838 16.7219 29.5647 17.1886 29.0857 17.8886H27.8185C27.8185 15.4464 27.0458 13.222 25.6549 11.3709L27.7257 9.28651C28.5912 9.44207 29.472 9.19318 30.1365 8.55541C31.1719 7.4821 31.1719 5.75546 30.1365 4.66659C29.0702 3.62438 27.3548 3.62438 26.2731 4.66659C25.6395 5.33547 25.3922 6.22212 25.5467 7.09322L23.4759 9.17763C22.0542 8.10431 20.3852 7.38877 18.5462 7.12433V4.94658C19.2416 4.46437 19.7052 3.63994 19.7052 2.72218C19.7052 1.21331 18.4998 0 17.0008 0C15.5017 0 14.2963 1.21331 14.2963 2.72218C14.2963 3.63994 14.76 4.46437 15.4554 4.94658V7.12433C14.0645 7.32654 12.7664 7.77765 11.5919 8.46208L9.87654 5.98879C10.1702 5.17991 10.0929 4.2466 9.56746 3.49994C8.70205 2.27107 7.01758 1.95997 5.79672 2.83106C4.57587 3.68661 4.26679 5.38213 5.13221 6.611C5.65764 7.37321 6.49215 7.77765 7.34211 7.77765L9.16566 10.3909C8.50115 11.0598 7.97572 11.8065 7.52755 12.6309C6.56942 12.2576 5.41038 12.4442 4.63769 13.222C3.60228 14.3109 3.60228 16.022 4.63769 17.1108C5.08585 17.5308 5.62673 17.7797 6.18307 17.8886C6.18307 18.7286 6.29125 19.5375 6.46124 20.3152L4.43678 20.8597C3.78772 20.3152 2.8914 20.0819 1.99508 20.3152C0.557869 20.7041 -0.295184 22.1974 0.094253 23.6596C0.480599 25.1062 1.97962 25.9618 3.41683 25.5729C4.2977 25.324 4.96222 24.6707 5.24039 23.8618L7.57392 23.2241C8.26934 24.4529 9.19657 25.5418 10.2783 26.444L8.57842 29.5551C7.72846 29.6795 6.95576 30.1617 6.5076 30.9862C5.79672 32.3084 6.29125 33.9572 7.60482 34.6728C8.9184 35.3883 10.5565 34.8905 11.2674 33.5683C11.7001 32.7595 11.6846 31.8261 11.2983 31.0639L12.9519 27.9995C14.2036 28.4973 15.5636 28.7773 17.0008 28.7773C17.0935 28.7773 17.1862 28.7773 17.2789 28.7773C17.078 29.1817 17.0008 29.6484 17.0008 30.1462C17.1244 31.655 18.4225 32.775 19.9061 32.6661C21.3897 32.5572 22.5178 31.235 22.4096 29.7417C22.3478 28.964 21.9615 28.2795 21.4051 27.8284C22.1314 27.5018 22.8269 27.0818 23.4759 26.5996L27.0921 30.2395C26.9376 31.1106 27.1849 31.9972 27.8185 32.6661C28.9002 33.7083 30.6002 33.7083 31.6819 32.6661C32.7637 31.6239 32.7173 29.8662 31.6819 28.7773C31.0174 28.1395 30.1365 27.8906 29.2711 28.0462L25.6549 24.4063C26.4122 23.3952 26.9994 22.2441 27.3703 20.9997H29.0857ZM14.6827 17.8886C13.4 17.8886 12.3646 16.8464 12.3646 15.5553C12.3646 14.2642 13.4 13.222 14.6827 13.222C15.9654 13.222 17.0008 14.2642 17.0008 15.5553C17.0008 16.8464 15.9654 17.8886 14.6827 17.8886ZM20.0915 22.5552C19.2416 22.5552 18.5462 21.8552 18.5462 20.9997C18.5462 20.1441 19.2416 19.4441 20.0915 19.4441C20.9415 19.4441 21.6369 20.1441 21.6369 20.9997C21.6369 21.8552 20.9415 22.5552 20.0915 22.5552Z" fill="#171818"/>
</svg>
