<svg width="38" height="38" viewBox="0 0 38 38" fill="none" xmlns="http://www.w3.org/2000/svg">
<path d="M26.7727 5.18182V12.5227L31.7127 15.4418L30.4173 17.5491L24.1818 13.8182V5.18182H26.7727ZM25.9091 20.7273C28.2582 20.7273 30.2964 19.8636 31.9545 18.1882C33.6818 16.5127 34.5455 14.4918 34.5455 12.0909C34.5455 9.74182 33.6818 7.70364 31.9545 6.04545C30.2964 4.31818 28.2582 3.45455 25.9091 3.45455C23.5082 3.45455 21.4873 4.31818 19.8118 6.04545C18.1364 7.70364 17.2727 9.74182 17.2727 12.0909C17.2727 14.4918 18.1364 16.5127 19.8118 18.1882C21.4873 19.8636 23.5082 20.7273 25.9091 20.7273ZM21.5909 31.0909C22.3509 31.0909 22.9727 30.8145 23.4564 30.2964C23.94 29.7782 24.1818 29.1736 24.1818 28.5C24.1818 27.7745 23.94 27.17 23.4564 26.6518C22.9727 26.1336 22.3509 25.9091 21.5909 25.9091C20.8309 25.9091 20.2091 26.1336 19.7255 26.6518C19.2418 27.17 19 27.7745 19 28.5C19 29.1736 19.2418 29.7782 19.7255 30.2964C20.2091 30.8145 20.8309 31.0909 21.5909 31.0909ZM3.45455 20.7273H17.4627C15.0273 18.3782 13.8182 15.5455 13.8182 12.0909H3.45455V20.7273ZM6.04545 31.0909C6.80545 31.0909 7.42727 30.8145 7.91091 30.2964C8.39455 29.7782 8.63636 29.1736 8.63636 28.5C8.63636 27.7745 8.39455 27.17 7.91091 26.6518C7.42727 26.1336 6.80545 25.9091 6.04545 25.9091C5.28545 25.9091 4.66364 26.1336 4.18 26.6518C3.69636 27.17 3.45455 27.7745 3.45455 28.5C3.45455 29.1736 3.69636 29.7782 4.18 30.2964C4.66364 30.8145 5.28545 31.0909 6.04545 31.0909ZM25.9091 0C29.2255 0 32.0927 1.15727 34.4591 3.54091C36.8427 5.90727 38 8.77455 38 12.0909C38 15.1482 37.0327 17.7736 35.0291 20.0191C33.0427 22.2473 30.5727 23.5945 27.6364 24.0264V29.3636C27.6364 30.8145 27.0664 32.0927 25.9091 33.1636V36.2727C25.9091 36.7391 25.7191 37.1364 25.3909 37.4991C25.0455 37.8445 24.6655 38 24.1818 38H22.4545C21.9882 38 21.5909 37.8445 21.2282 37.4991C20.8827 37.1364 20.7273 36.7391 20.7273 36.2727V34.5455H6.90909V36.2727C6.90909 36.7391 6.75364 37.1364 6.40818 37.4991C6.04545 37.8445 5.64818 38 5.18182 38H3.45455C2.97091 38 2.59091 37.8445 2.24545 37.4991C1.91727 37.1364 1.72727 36.7391 1.72727 36.2727V33.1636C0.57 32.0927 0 30.8145 0 29.3636V12.0909C0 9.36182 1.15727 7.51364 3.54091 6.56364C5.90727 5.63091 9.34455 5.18182 13.8182 5.18182C14.0427 5.18182 14.3882 5.18182 14.8718 5.18182C15.3555 5.18182 15.7009 5.23364 15.9255 5.23364C18.3609 1.72727 21.6773 0 25.9091 0Z" fill="#171818"/>
</svg>
