<svg width="40" height="40" viewBox="0 0 40 40" fill="none" xmlns="http://www.w3.org/2000/svg">
<path d="M8.57143 11.2381L4.51429 7.2L7.2 4.51429L11.2381 8.57143L8.57143 11.2381ZM21.9048 0V5.71429H18.0952V0H21.9048ZM35.4857 7.2L31.4286 11.2381L28.7619 8.57143L32.8 4.51429L35.4857 7.2ZM5.71429 18.0952V21.9048H0V18.0952H5.71429ZM34.2857 18.0952H40V21.9048H34.2857V18.0952ZM8.57143 36.1905H31.4286C32.4389 36.1905 33.4079 36.5918 34.1223 37.3063C34.8367 38.0207 35.2381 38.9897 35.2381 40H4.7619C4.7619 38.9897 5.16326 38.0207 5.87769 37.3063C6.59211 36.5918 7.56108 36.1905 8.57143 36.1905ZM20 7.61905C23.031 7.61905 25.9379 8.82313 28.0812 10.9664C30.2245 13.1097 31.4286 16.0166 31.4286 19.0476V34.2857H8.57143V19.0476C8.57143 16.0166 9.77551 13.1097 11.9188 10.9664C14.0621 8.82313 16.969 7.61905 20 7.61905ZM20 11.4286C17.9793 11.4286 16.0414 12.2313 14.6125 13.6601C13.1837 15.089 12.381 17.0269 12.381 19.0476V30.4762H27.619V19.0476C27.619 17.0269 26.8163 15.089 25.3875 13.6601C23.9586 12.2313 22.0207 11.4286 20 11.4286Z" fill="#171818"/>
</svg>
