<svg width="38" height="36" viewBox="0 0 38 36" fill="none" xmlns="http://www.w3.org/2000/svg">
<path d="M28.9524 5.4L30.0743 7.866L32.5714 9L30.0743 10.134L28.9524 12.6L27.7943 10.134L25.3333 9L27.7943 7.866L28.9524 5.4ZM18.0952 7.434V3.6H21.7143C22.7457 3.6 23.7048 3.906 24.519 4.41L27.1429 1.8C25.6048 0.702 23.759 0 21.7143 0H11.7619V3.6H14.4762V7.452C11.2733 8.1 8.70381 10.44 7.70857 13.5H14.9105L25.3333 17.37V16.254C25.3333 11.898 22.221 8.262 18.0952 7.434ZM0 36H7.2381V16.2H0V36ZM34.381 27H21.7143L17.9324 25.686L18.5295 23.994L21.7143 25.2H26.8171C27.9933 25.2 28.9524 24.246 28.9524 23.076C28.9524 22.194 28.3914 21.402 27.559 21.078L14.4219 16.2H10.8571V32.4L23.5238 36L38 30.6C38 28.62 36.3895 27 34.381 27ZM34.381 21.6C36.3714 21.6 38 19.98 38 18C38 16.02 34.381 10.8 34.381 10.8C34.381 10.8 30.7619 16.02 30.7619 18C30.7619 19.98 32.3905 21.6 34.381 21.6Z" fill="#171818"/>
</svg>
