<svg width="24" height="22" viewBox="0 0 24 22" fill="none" xmlns="http://www.w3.org/2000/svg">
<path d="M2.18182 0H21.8182C22.3968 0 22.9518 0.231785 23.361 0.644365C23.7701 1.05694 24 1.61652 24 2.2V19.8C24 20.3835 23.7701 20.9431 23.361 21.3556C22.9518 21.7682 22.3968 22 21.8182 22H2.18182C1.60316 22 1.04821 21.7682 0.63904 21.3556C0.22987 20.9431 0 20.3835 0 19.8V2.2C0 1.61652 0.22987 1.05694 0.63904 0.644365C1.04821 0.231785 1.60316 0 2.18182 0ZM13.0909 2.2V19.8H21.8182V2.2H13.0909ZM2.18182 2.2V19.8H10.9091V2.2H2.18182ZM4.36364 12.1H6.54545V16.5H4.36364V12.1ZM4.36364 4.4H8.72727V6.05H4.36364V4.4ZM4.36364 7.7H8.72727V9.35H4.36364V7.7ZM15.2727 12.1H17.4545V16.5H15.2727V12.1ZM15.2727 4.4H19.6364V6.05H15.2727V4.4ZM15.2727 7.7H19.6364V9.35H15.2727V7.7Z" fill="black"/>
</svg>
