<svg width="40" height="36" viewBox="0 0 40 36" fill="none" xmlns="http://www.w3.org/2000/svg">
<path d="M27 36L24 10H28.46L26.2 0.92L29.68 0L32.18 10H40L37 36H27ZM6 16H16C17.5913 16 19.1174 16.6321 20.2426 17.7574C21.3679 18.8826 22 20.4087 22 22H0C0 20.4087 0.632141 18.8826 1.75736 17.7574C2.88258 16.6321 4.4087 16 6 16ZM22 30C22 31.5913 21.3679 33.1174 20.2426 34.2426C19.1174 35.3679 17.5913 36 16 36H6C4.4087 36 2.88258 35.3679 1.75736 34.2426C0.632141 33.1174 0 31.5913 0 30H22ZM2 24H12L15 27L18 24H20C20.5304 24 21.0391 24.2107 21.4142 24.5858C21.7893 24.9609 22 25.4696 22 26C22 26.5304 21.7893 27.0391 21.4142 27.4142C21.0391 27.7893 20.5304 28 20 28H2C1.46957 28 0.960859 27.7893 0.585786 27.4142C0.210714 27.0391 0 26.5304 0 26C0 25.4696 0.210714 24.9609 0.585786 24.5858C0.960859 24.2107 1.46957 24 2 24Z" fill="#171818"/>
</svg>
