<svg width="39" height="37" viewBox="0 0 39 37" fill="none" xmlns="http://www.w3.org/2000/svg">
<path d="M39 3.885V0.555L35.673 0.185C35.4882 0.185 34.3791 0 32.5308 0C24.9526 0 19.4076 2.22 16.2654 6.105C13.8626 4.625 10.5355 3.7 6.65403 3.7C4.80569 3.7 3.51185 3.885 3.51185 3.885L0 4.44L0.184834 7.585C0.369668 13.135 3.14218 23.68 12.7536 23.68C12.9384 23.68 12.9384 23.68 13.1232 23.68V29.97C6.09953 30.895 0.184834 33.3 0.184834 33.3V37H37.1517V33.3C37.1517 33.3 31.237 30.895 24.2133 29.97V24.05C35.8578 23.865 39 10.73 39 3.885ZM18.6682 29.6C18.1137 29.6 17.3744 29.6 16.8199 29.6V19.24C16.8199 19.24 16.4502 12.95 11.2749 12.95C11.2749 12.95 14.0474 14.43 14.7867 19.795C14.0474 19.98 13.3081 19.98 12.7536 19.98C4.25118 19.98 3.88152 7.585 3.88152 7.585C3.88152 7.585 4.99052 7.4 6.65403 7.4C10.1659 7.4 15.8957 8.14 17.5592 13.135C18.4834 4.81 27.91 3.7 32.5308 3.7C34.1943 3.7 35.3033 3.885 35.3033 3.885C35.3033 3.885 35.3033 20.535 23.6588 20.535C23.2891 20.535 22.7346 20.535 22.3649 20.535C22.3649 16.835 26.0616 11.285 26.0616 11.285C20.5166 13.135 20.5166 20.35 20.5166 20.35V29.6C19.9621 29.6 19.2227 29.6 18.6682 29.6Z" fill="#171818"/>
</svg>
