<svg width="24" height="22" viewBox="0 0 24 22" fill="none" xmlns="http://www.w3.org/2000/svg">
<path d="M20.4 6.11111V3.66667C20.4 1.65 18.78 0 16.8 0H7.2C5.22 0 3.6 1.65 3.6 3.66667V6.11111C1.62 6.11111 0 7.76111 0 9.77778V15.8889C0 17.9056 1.62 19.5556 3.6 19.5556V22H6V19.5556H18V22H20.4V19.5556C22.38 19.5556 24 17.9056 24 15.8889V9.77778C24 7.76111 22.38 6.11111 20.4 6.11111ZM6 3.66667C6 2.99444 6.54 2.44444 7.2 2.44444H16.8C17.46 2.44444 18 2.99444 18 3.66667V7.06444C17.268 7.73667 16.8 8.70222 16.8 9.77778V12.2222H7.2V9.77778C7.2 8.70222 6.732 7.73667 6 7.06444V3.66667ZM21.6 15.8889C21.6 16.5611 21.06 17.1111 20.4 17.1111H3.6C2.94 17.1111 2.4 16.5611 2.4 15.8889V9.77778C2.4 9.10556 2.94 8.55556 3.6 8.55556C4.26 8.55556 4.8 9.10556 4.8 9.77778V14.6667H19.2V9.77778C19.2 9.10556 19.74 8.55556 20.4 8.55556C21.06 8.55556 21.6 9.10556 21.6 9.77778V15.8889Z" fill="black"/>
</svg>
