<svg width="26" height="22" viewBox="0 0 26 22" fill="none" xmlns="http://www.w3.org/2000/svg">
<path d="M13 22L17.3333 16.1333C16.1296 15.2167 14.625 14.6667 13 14.6667C11.375 14.6667 9.87037 15.2167 8.66667 16.1333L13 22ZM13 0C8.125 0 3.62315 1.63778 0 4.4L2.16667 7.33333C5.17593 5.03556 8.93148 3.66667 13 3.66667C17.0685 3.66667 20.8241 5.03556 23.8333 7.33333L26 4.4C22.3769 1.63778 17.875 0 13 0ZM13 7.33333C9.75 7.33333 6.75278 8.42111 4.33333 10.2667L6.5 13.2C8.30556 11.8189 10.5565 11 13 11C15.4435 11 17.6944 11.8189 19.5 13.2L21.6667 10.2667C19.2472 8.42111 16.25 7.33333 13 7.33333Z" fill="black"/>
</svg>
