<svg width="26" height="32" viewBox="0 0 26 32" fill="none" xmlns="http://www.w3.org/2000/svg">
<path d="M18.6667 14.5834H17.25V3.25002C17.25 1.69169 15.975 0.416687 14.4167 0.416687H11.5833C10.025 0.416687 8.75 1.69169 8.75 3.25002V14.5834H7.33333C3.42333 14.5834 0.25 17.7567 0.25 21.6667V31.5834H25.75V21.6667C25.75 17.7567 22.5767 14.5834 18.6667 14.5834ZM22.9167 28.75H20.0833V24.5C20.0833 23.7209 19.4458 23.0834 18.6667 23.0834C17.8875 23.0834 17.25 23.7209 17.25 24.5V28.75H14.4167V24.5C14.4167 23.7209 13.7792 23.0834 13 23.0834C12.2208 23.0834 11.5833 23.7209 11.5833 24.5V28.75H8.75V24.5C8.75 23.7209 8.1125 23.0834 7.33333 23.0834C6.55417 23.0834 5.91667 23.7209 5.91667 24.5V28.75H3.08333V21.6667C3.08333 19.3292 4.99583 17.4167 7.33333 17.4167H18.6667C21.0042 17.4167 22.9167 19.3292 22.9167 21.6667V28.75Z" fill="#404040"/>
</svg>
