<?xml version="1.0" encoding="utf-8"?>
<!-- Generator: Adobe Illustrator 24.0.1, SVG Export Plug-In . SVG Version: 6.00 Build 0)  -->
<svg version="1.1" id="Layer_1" xmlns="http://www.w3.org/2000/svg" xmlns:xlink="http://www.w3.org/1999/xlink" x="0px" y="0px"
	 viewBox="0 0 33 70" style="enable-background:new 0 0 33 70;" xml:space="preserve">
<style type="text/css">
	.st0{fill:#F5F3E7;}
</style>
<path class="st0" d="M15.4,63c-3.6,0-6.8-1.6-9.6-5c-3-3.4-4.3-8-4.3-13.4C1.5,39.8,4,32.8,9.2,23c5-9.8,8.9-14.6,11.4-14.6
	c1.4,0,2.1,0.7,2.1,2.3c0,0.5-1.4,3.6-4.3,9.6c-3,5.9-4.3,10.5-4.3,13.9c0,2.5,1.6,4.8,5,6.4c3.2,1.6,5.5,3.4,6.6,5.2
	s1.6,3.6,1.6,5.7c0,3.6-1.1,6.6-3.2,8.9C21.5,61.9,18.8,63,15.4,63z"/>
</svg>
