<svg width="44" height="44" viewBox="0 0 44 44" fill="none" xmlns="http://www.w3.org/2000/svg">
<path fill-rule="evenodd" clip-rule="evenodd" d="M16.5 31.1666L22 25.7766C21.285 25.7033 20.7533 25.6666 20.1667 25.6666C15.2717 25.6666 5.5 28.1233 5.5 32.9999V36.6666H22L16.5 31.1666ZM20.1667 21.9999C24.2183 21.9999 27.5 18.7183 27.5 14.6666C27.5 10.6149 24.2183 7.33325 20.1667 7.33325C16.115 7.33325 12.8333 10.6149 12.8333 14.6666C12.8333 18.7183 16.115 21.9999 20.1667 21.9999Z" fill="#4E524C"/>
<path fill-rule="evenodd" clip-rule="evenodd" d="M28.3617 37.5832L22 31.1665L24.5667 28.5815L28.3617 32.3948L37.7667 22.9165L40.3333 25.5015L28.3617 37.5832Z" fill="#4E524C"/>
</svg>
