<svg width="38" height="26" viewBox="0 0 38 26" fill="none" xmlns="http://www.w3.org/2000/svg">
<path d="M27.2493 13C29.7793 13 31.8143 10.9466 31.8143 8.41663C31.8143 5.88663 29.7793 3.83329 27.2493 3.83329C24.7193 3.83329 22.666 5.88663 22.666 8.41663C22.666 10.9466 24.7193 13 27.2493 13ZM13.4993 11.1666C16.5427 11.1666 18.981 8.70996 18.981 5.66663C18.981 2.62329 16.5427 0.166626 13.4993 0.166626C10.456 0.166626 7.99935 2.62329 7.99935 5.66663C7.99935 8.70996 10.456 11.1666 13.4993 11.1666ZM27.2493 16.6666C23.8943 16.6666 17.166 18.3533 17.166 21.7083V25.8333H37.3327V21.7083C37.3327 18.3533 30.6043 16.6666 27.2493 16.6666ZM13.4993 14.8333C9.22768 14.8333 0.666016 16.9783 0.666016 21.25V25.8333H13.4993V21.7083C13.4993 20.15 14.1043 17.4183 17.8443 15.3466C16.2493 15.0166 14.7093 14.8333 13.4993 14.8333Z" fill="#4E524C"/>
</svg>
