<svg width="596" height="182" viewBox="0 0 596 182" fill="none" xmlns="http://www.w3.org/2000/svg">
<g opacity="0.1">
<path d="M-497.021 3.52729C-495.05 3.90618 -493.08 3.98195 -491.186 4.20928C-490.655 4.28506 -490.125 4.13351 -489.67 4.36084C-488.458 4.89128 -487.245 4.73972 -485.957 4.8155C-485.199 4.8155 -484.442 4.73972 -483.76 4.96705C-482.092 5.57327 -480.501 5.42172 -478.834 5.42172C-478.228 5.42172 -477.546 5.34594 -476.94 5.57327C-474.969 6.25526 -472.999 6.10371 -471.029 6.10371C-468.528 6.10371 -466.028 6.55837 -463.603 7.01303C-461.708 7.39192 -459.814 7.46769 -457.995 7.16459C-456.252 6.86148 -454.358 6.33104 -452.767 6.86148C-450.797 7.54347 -449.054 6.33104 -447.235 6.70992C-447.159 6.70992 -447.008 6.70992 -446.932 6.70992C-445.189 7.01303 -443.446 7.54347 -441.703 7.69502C-438.975 7.92235 -436.399 8.68012 -433.671 8.52857C-432.231 8.45279 -430.716 8.52857 -429.276 8.52857C-428.518 8.52857 -427.76 8.45279 -427.078 8.68012C-425.563 9.21056 -423.971 9.13478 -422.456 9.21056C-419.122 9.28634 -415.863 10.1199 -412.453 9.89255C-412.15 9.89255 -411.847 10.0441 -411.544 10.0441C-410.483 10.1957 -409.498 10.3472 -408.437 10.423C-407.604 10.4988 -406.77 10.3472 -405.936 10.4988C-403.512 10.8777 -401.011 11.2565 -398.586 11.8628C-397.449 12.1659 -396.313 12.3174 -395.176 12.2416C-391.993 12.0143 -388.887 12.6205 -385.856 13.0752C-383.961 13.3783 -382.142 13.6056 -380.248 13.6056C-378.581 13.6056 -376.914 13.6056 -375.247 14.0603C-373.883 14.4392 -372.367 14.7423 -370.927 14.7423C-369.715 14.7423 -368.427 14.2118 -367.214 14.2876C-365.85 14.2876 -364.638 14.8938 -363.198 14.8181C-361.834 14.7423 -360.546 14.8181 -359.182 15.1969C-358.424 15.4243 -357.515 15.2727 -356.757 15.1212C-355.999 14.9696 -355.393 14.8938 -354.635 15.1212C-353.878 15.3485 -352.968 15.3485 -352.135 15.3485C-348.346 15.4243 -344.633 15.4243 -340.844 15.4243C-338.419 15.4243 -335.994 15.5758 -333.645 15.3485C-332.205 15.2727 -330.766 14.6665 -329.477 15.7274C-329.326 15.8032 -329.023 15.8789 -328.871 15.8032C-327.659 15.1969 -326.446 15.7274 -325.234 15.5758C-323.794 15.4243 -322.354 15.4243 -320.839 15.4243C-318.793 15.3485 -316.671 15.5758 -314.625 14.9696C-314.17 14.818 -313.64 15.1212 -313.11 15.1969C-311.594 15.4243 -310.154 16.182 -308.563 15.5C-306.896 16.0305 -305.077 15.0454 -303.334 15.8789C-302.955 16.0305 -302.501 15.9547 -302.122 16.0305C-298.409 16.182 -294.62 15.6516 -290.831 16.4094C-288.027 15.8031 -285.224 16.2578 -282.42 16.1063C-281.814 16.1063 -281.207 15.8789 -280.601 15.8031C-280.222 15.7274 -279.692 15.6516 -279.465 15.8789C-278.252 17.0914 -276.812 16.7882 -275.297 16.5609C-274.766 16.4851 -274.312 16.4094 -273.781 16.4851C-271.281 16.7882 -268.78 17.0914 -266.355 16.3336C-266.052 16.2578 -265.673 16.182 -265.446 16.3336C-263.324 17.1671 -261.127 16.7125 -258.929 16.7882C-256.731 16.864 -254.534 16.7125 -252.336 17.0156C-250.063 17.3187 -247.79 17.6976 -245.516 16.9398C-244.91 16.7882 -244.304 16.864 -243.622 16.7882C-241.424 16.5609 -239.303 17.3945 -237.181 16.9398C-234.605 17.6976 -231.952 17.2429 -229.376 17.3945C-227.406 17.546 -225.436 17.0913 -223.465 17.8491C-223.086 18.0007 -222.48 17.6976 -221.95 17.6218C-220.737 17.546 -219.373 17.3187 -218.237 17.546C-216.873 17.8491 -215.585 17.9249 -214.221 17.9249C-207.401 17.9249 -200.581 17.9249 -193.836 18.0007C-192.7 18.0007 -191.487 17.8491 -190.427 18.1522C-188.456 18.6827 -186.486 18.5311 -184.516 18.6069C-182.015 18.6069 -179.515 18.6069 -177.014 18.6827C-175.877 18.6827 -174.741 18.6827 -173.604 19.0615C-172.846 19.2889 -171.937 19.2889 -171.179 19.0615C-169.588 18.6069 -168.148 18.5311 -166.557 19.1373C-166.178 19.2889 -165.723 19.2131 -165.344 19.2889C-164.283 19.4404 -163.298 19.7435 -162.313 19.7435C-161.177 19.7435 -160.04 19.3647 -158.903 19.3647C-156.403 19.2889 -153.902 19.2889 -151.401 19.2889C-150.795 19.2889 -150.113 19.2131 -149.507 19.4404C-147.991 20.0466 -146.4 19.9709 -144.885 19.9709C-142.081 19.9709 -139.201 19.9709 -136.397 19.9709C-135.261 19.9709 -134.124 19.7435 -132.988 19.4404C-130.487 18.6069 -130.487 18.6827 -127.986 19.7435C-127.835 19.8193 -127.607 19.8193 -127.304 19.8951C-124.804 19.2131 -122.303 19.0615 -119.651 19.7435C-119.272 19.8193 -118.817 19.8193 -118.438 19.7435C-115.483 19.3646 -112.604 18.3795 -109.572 19.2889C-109.194 19.3646 -108.739 19.3646 -108.36 19.2889C-106.541 19.0615 -104.647 18.91 -102.828 18.4553C-100.934 18.0007 -99.191 18.1522 -97.2965 18.3795C-94.417 18.7584 -91.4617 18.91 -88.5822 18.3038C-87.6728 18.1522 -86.6877 18.0764 -85.7784 18.0007C-83.2778 17.9249 -80.7771 18.0007 -78.2765 18.0007C-76.5336 18.0007 -74.7149 18.0007 -72.9721 18.0007C-71.2292 18.0007 -69.4105 18.0007 -67.6677 18.0764C-65.9248 18.0764 -64.1062 18.0764 -62.3633 18.0764C-60.6204 18.0764 -58.726 18.3038 -57.0589 17.9249C-55.2402 17.546 -53.5732 18.0764 -51.8303 18.0006C-51.3756 18.0006 -50.9967 18.0006 -50.5421 17.9249C-49.2539 17.6975 -47.9656 17.1671 -46.6017 17.7733C-45.6923 17.0913 -44.7073 18.0006 -43.8737 17.6975C-42.8886 17.3187 -42.055 17.9249 -41.1457 17.8491C-40.3122 17.8491 -39.4028 18.0006 -38.6451 17.7733C-36.8264 17.1671 -34.932 17.3944 -33.0376 17.3187C-30.2338 17.2429 -27.4301 17.6218 -24.6263 17.3187C-23.7928 17.2429 -22.9592 16.9398 -22.2014 17.0913C-19.1704 17.6218 -16.2151 16.864 -13.184 17.2429C-12.5778 17.3187 -11.8958 17.2429 -11.2896 17.0913C-10.0771 16.6367 -8.78891 16.7882 -7.57647 16.7124C-5.60627 16.6367 -3.5603 16.9398 -1.66587 16.4851C0.304331 16.0304 2.27453 16.1062 4.24473 16.0304C5.83605 15.9547 7.42737 16.182 8.94292 15.8031C10.8373 15.3484 12.656 15.3484 14.5504 15.3484C15.3082 15.3484 16.0659 15.4242 16.7479 15.1969C18.415 14.6664 20.0064 14.7422 21.7493 14.7422C22.5828 14.7422 23.4921 14.818 24.2499 14.5907C26.9021 13.8329 29.63 14.0602 32.2822 13.6056C35.2375 13.1509 38.2686 12.5447 41.2997 12.772C42.891 12.2416 44.6339 12.4689 46.2252 12.1658C47.9681 11.7869 49.711 11.7869 51.4538 11.4838C53.8029 11.1049 56.2278 10.8776 58.5769 10.8776C59.1073 10.8776 59.6378 10.726 60.0924 10.5745C61.8353 9.89249 63.7297 9.74093 65.6241 9.66516C67.5943 9.58938 69.5646 9.36205 71.459 8.83161C73.0503 8.37694 74.4901 7.39184 76.2329 8.22539C76.4603 8.30117 76.8392 8.14961 77.1423 8.07384C80.0976 7.39184 82.9013 6.17941 86.0082 6.48252C86.2355 6.48252 86.3871 6.40674 86.6144 6.40674C89.3424 5.8763 92.0703 5.19431 94.9499 5.27008C95.253 5.27008 95.6319 5.27008 95.8592 5.1943C98.0567 4.13343 100.557 4.2092 102.831 3.52721C104.422 3.07255 106.089 2.69366 107.756 2.76944C108.362 2.84521 109.044 2.69366 109.575 2.39055C111.015 1.557 112.53 1.40545 114.121 1.48123C114.728 1.48123 115.334 1.32967 115.94 1.10234C117.531 0.571901 119.047 0.799232 120.487 1.557C121.775 2.31477 123.215 2.69366 124.2 3.83031C124.806 4.51231 125.64 4.51231 126.473 4.28498C127.382 4.05764 128.292 3.90609 129.277 3.90609C130.414 3.90609 131.55 4.36075 132.687 4.28498C133.899 4.2092 135.112 3.83031 136.4 3.90609C139.128 3.98187 141.856 3.98187 144.584 3.90609C145.796 3.90609 147.085 3.60298 148.297 3.45143C150.04 3.29987 151.858 3.07254 153.601 3.60298C154.208 3.75453 154.814 3.83031 155.42 3.90609C157.466 4.13342 159.588 4.13342 161.558 4.66386C163.528 5.1943 165.498 5.11852 167.469 5.19429C168.605 5.19429 169.742 5.11852 170.878 5.57318C171.409 5.80051 172.091 5.80051 172.697 5.80051C174.97 5.80051 177.168 6.25517 179.517 5.87629C180.502 5.72473 181.563 6.10362 182.624 6.17939C183.23 6.25517 183.988 6.4825 184.443 6.25517C186.337 5.27007 188.156 5.04274 190.126 5.80051C190.277 5.87629 190.581 5.87629 190.732 5.80051C193.763 5.42162 196.719 6.33095 199.75 6.4825C200.204 6.4825 200.583 6.93716 201.341 7.31605C200.659 7.77071 200.28 8.1496 199.825 8.22537C197.476 8.83159 195.203 9.36203 192.854 9.89247C191.869 10.1198 190.732 10.1198 189.823 10.5745C188.307 11.3322 186.792 11.3322 185.276 11.3322C184.215 11.3322 183.154 11.2565 182.245 11.7869C180.275 12.9236 178.229 12.9236 176.183 12.3173C175.046 12.0142 173.91 11.8627 172.773 12.2416C171.333 12.6962 169.893 12.6204 168.454 12.6962C167.62 12.6962 166.711 12.6204 165.953 12.8478C165.044 13.1509 164.362 12.9993 163.528 12.6962C162.164 12.2416 160.8 11.7869 159.285 12.4689C158.451 12.8478 157.466 12.6204 156.481 12.6204C155.42 12.6204 154.435 12.6204 153.526 12.6962C152.086 14.2875 152.086 14.136 150.267 14.5907C148.373 15.1211 146.327 15.0453 144.432 16.1062C144.811 16.182 145.114 16.4093 145.417 16.3335C147.236 15.8031 149.13 15.7273 151.025 15.7273C151.934 15.7273 152.844 15.2726 153.753 15.2726C154.814 15.2726 155.799 15.5758 156.784 15.7273C157.087 15.8031 157.39 15.8031 157.693 15.7273C159.512 15.2726 161.482 15.3484 163.225 14.9695C165.195 14.5149 167.165 14.5149 169.136 14.4391C169.969 14.4391 170.879 14.5149 171.636 14.2875C173.379 13.6813 175.122 13.9087 176.941 13.8329C178.987 13.7571 181.108 13.9087 183.154 13.3782C184.518 12.9993 186.034 12.9993 187.474 13.5298C188.61 13.9844 189.747 13.8329 190.884 13.6055C191.869 13.454 192.93 13.2267 193.99 13.2267C196.415 13.1509 198.84 13.1509 201.189 13.1509C202.099 13.1509 203.16 13.3024 203.993 13.0751C206.342 12.3931 208.767 12.6204 211.192 12.5447C214.526 12.4689 217.86 12.5447 221.27 12.5447C223.771 12.5447 226.272 12.8478 228.772 12.0142C229.227 11.8627 229.833 11.9384 230.363 11.9384C232.485 11.9384 234.531 11.9384 236.653 11.9384C245.443 11.9384 254.233 11.9384 263.023 11.8627C263.63 11.8627 264.312 11.7869 264.842 11.5596C265.827 11.1807 266.661 11.2564 267.57 11.7111C268.252 12.0142 268.934 12.2415 269.54 12.5447C271.132 11.8627 272.647 11.7869 274.238 11.8627C274.769 11.8627 275.148 12.1658 275.451 12.6962C276.133 13.8329 276.815 14.136 277.648 13.5298C279.012 12.5447 280.528 12.4689 282.043 12.0142C282.195 11.9384 282.422 12.1658 282.65 12.2415C282.65 12.6204 282.65 12.9993 282.65 13.7571C284.317 13.6813 285.984 13.9086 287.802 13.6813C288.03 11.2564 289.773 10.8776 291.819 10.6502C292.652 10.5744 293.41 10.2713 294.244 10.1956C294.774 10.1198 295.304 10.1198 295.759 10.2713C296.138 10.3471 296.517 10.726 296.593 11.1049C296.744 11.5596 296.365 11.7111 295.911 11.9384C294.698 12.6962 294.698 12.6962 294.016 14.5149C294.319 14.6664 294.622 14.8937 294.85 14.8937C297.426 14.3633 300.003 14.2875 302.579 14.9695C303.185 15.1211 303.867 15.1968 304.473 15.0453C305.61 14.7422 306.823 15.1211 307.808 14.818C309.02 14.4391 310.081 15.0453 311.142 15.0453C311.975 15.0453 312.809 14.9695 313.642 14.818C314.249 14.7422 314.931 14.4391 315.461 14.5906C317.052 15.0453 318.72 14.5149 320.311 15.0453C324.479 14.8937 328.646 15.5 332.814 14.6664C333.117 14.5906 333.42 14.5906 333.723 14.7422C335.087 15.3484 336.376 14.9695 337.664 14.5906C340.24 15.6515 343.499 16.2577 346.227 16.3335C346.757 16.3335 347.287 16.1819 347.818 16.4093C350.622 17.4702 353.653 16.4851 356.456 17.4702C357.063 17.6975 357.896 17.3944 358.654 17.3944C360.397 17.3944 362.064 16.8639 363.807 17.4702C364.489 17.6975 365.322 17.6975 366.004 17.4702C368.126 16.8639 370.172 17.4702 372.142 17.7733C373.506 17.9248 374.795 18.1521 376.159 18.2279C381.993 18.4553 387.828 17.849 393.663 18.6826C396.239 18.4552 398.816 18.7584 401.317 18.7584C402.226 18.7584 403.135 18.3795 404.045 18.3795C405.03 18.3795 406.166 18.7584 407.076 18.531C408.667 18.1521 410.182 18.2279 411.774 18.2279C414.274 18.2279 416.775 18.4552 419.276 18.4552C421.246 18.4552 423.216 18.3037 425.186 18.2279C427.157 18.1521 429.127 17.9248 431.097 18.1521C432.537 18.3037 434.052 18.0764 435.492 18.2279C436.932 18.3795 438.371 17.7733 439.811 18.0764C441.251 18.3795 442.691 17.4701 444.131 18.0764C444.358 18.1521 444.737 17.9248 445.04 17.849C445.646 17.7732 446.328 17.5459 446.859 17.6217C447.919 17.7732 448.905 17.6975 449.965 17.6217C452.239 17.4701 454.512 17.2428 456.861 17.3186C457.922 17.3186 458.907 17.3186 459.968 17.0913C461.029 16.8639 462.241 17.6975 463.302 17.0155C466.561 16.9397 469.667 16.0304 472.926 16.3335C474.593 16.485 476.26 16.3335 477.927 16.3335C479.443 16.3335 481.034 15.9546 482.55 16.2577C484.899 15.1968 487.551 16.3335 489.976 15.2726C490.203 15.1968 490.582 15.4242 490.885 15.4242C491.415 15.4999 491.946 15.5757 492.401 15.4999C496.265 14.8179 500.13 15.1968 503.919 15.0453C504.752 15.0453 505.662 15.1968 506.419 14.9695C507.556 14.5148 508.617 14.8179 509.754 14.8937C510.89 14.9695 512.027 14.5906 513.163 14.5906C513.845 14.5906 514.603 14.8179 515.285 14.8937C516.119 14.9695 517.028 15.2726 517.786 15.0453C520.438 14.2117 523.166 14.5906 525.894 14.6664C526.652 14.7422 527.258 14.7422 527.94 14.2875C528.319 14.0602 529.001 13.9844 529.38 14.1359C530.592 14.5906 532.108 13.6055 533.169 14.8179C533.169 14.8937 533.396 14.8179 533.472 14.8179C534.836 14.2875 535.897 15.121 536.958 15.4999C537.336 16.1819 537.639 16.8639 538.094 17.4701C538.7 18.3037 539.61 18.9099 540.443 18.7583C542.792 18.3037 544.99 19.1372 547.263 19.0614C548.854 18.9857 550.597 19.3646 552.113 19.895C554.841 20.8801 557.493 22.0925 560.448 22.2441C561.964 23.0776 563.479 22.8503 565.071 22.2441C565.601 23.0776 565.98 23.9112 566.511 24.6689C566.965 25.3509 567.647 25.9572 568.557 25.8056C569.845 25.654 570.981 26.1845 572.194 26.5634C572.876 26.7907 573.634 27.018 574.316 27.0938C576.816 27.1696 579.241 28.0789 581.742 27.7758C582.045 27.7 582.348 27.7758 582.651 27.8516C584.924 28.382 587.198 28.382 589.471 28.382C590.911 28.382 592.426 28.382 593.866 28.4578C594.245 28.4578 594.7 28.5336 595.078 28.6851C595.306 28.7609 595.685 29.064 595.685 29.2913C595.761 29.5187 595.457 29.8218 595.306 30.0491C595.154 30.2007 594.927 30.2007 594.775 30.3522C593.26 31.11 591.593 31.1858 590.001 31.5647C588.41 31.9435 586.819 32.7013 585.152 32.7771C582.348 32.9286 579.544 33.4591 576.74 33.4591C573.482 33.5349 570.299 34.2926 567.117 34.2169C566.283 34.2169 565.45 34.7473 564.692 34.5957C563.783 34.4442 563.025 33.838 562.191 33.4591C561.812 33.3075 561.509 33.0044 561.13 32.8529C559.312 32.0951 557.569 31.9435 555.978 33.3075C553.78 33.0044 551.658 32.7013 549.461 32.3982C549.233 32.3982 549.006 32.3224 548.854 32.474C546.884 33.4591 544.535 32.9286 542.565 33.838C542.262 33.9895 541.731 33.9138 541.353 33.7622C539.837 33.2318 538.246 33.6106 536.654 33.5349C535.063 34.5957 533.093 34.52 531.426 35.3535C530.971 35.5808 530.668 36.0355 530.213 36.3386C529.834 36.6417 529.456 37.1722 529.001 37.1722C526.879 37.3995 525.818 38.6119 525.667 40.6579C525.667 40.961 525.364 41.1883 525.212 41.4915C523.621 40.8852 522.181 41.1126 520.59 41.5672C515.816 42.7797 515.513 42.7039 509.602 42.4766C509.299 42.4766 508.996 42.4766 508.693 42.6281C506.495 43.4617 504.222 43.1586 501.948 43.4617C498.084 43.9921 494.068 43.9163 490.279 45.1288C489.673 45.3561 489.369 44.7499 488.991 44.4468C488.763 44.5983 488.46 44.8257 488.157 44.9772C487.02 44.6741 485.959 43.7648 484.595 44.5225C483.989 44.8257 483.156 44.6741 482.398 44.6741C479.897 44.6741 477.397 44.6741 474.896 44.6741C473.987 44.6741 472.926 44.5983 472.092 44.9014C471.183 45.2045 470.425 44.8257 469.667 44.9014C468.758 44.9772 467.849 45.2803 466.939 44.9014C466.561 44.7499 466.106 44.8257 465.727 44.9014C462.166 45.5834 458.528 46.0381 454.891 45.9623C454.36 45.9623 453.83 45.8865 453.3 45.9623C451.481 46.2654 449.511 46.3412 448.071 47.7052C447.768 48.0083 447.389 48.0841 446.934 47.9325C446.328 47.6294 445.722 47.8567 445.116 48.1599C444.131 48.6145 443.146 48.9176 442.236 49.3723C441.175 49.8269 440.266 50.2816 438.978 49.9027C438.068 49.6754 436.932 50.0543 435.947 50.2058C433.446 50.5847 431.021 51.1152 428.52 51.0394C427.838 51.0394 427.081 51.3425 426.399 51.5698C424.959 52.0245 423.595 52.3276 422.079 52.2518C420.337 52.176 418.518 52.0245 417.078 53.3885C416.851 53.6158 416.245 53.4642 415.866 53.6158C415.638 53.6916 415.487 53.9947 415.184 54.3736C415.941 54.5251 416.396 54.6009 416.927 54.6767C419.427 54.904 421.852 54.222 424.353 54.4493C425.944 53.7674 427.687 54.0705 429.354 54.1462C431.097 54.2978 432.84 53.9947 434.431 55.1313C434.886 55.4344 435.644 55.2829 436.25 55.3587C436.78 55.4345 437.386 55.2829 437.765 55.4344C439.205 56.0407 440.645 55.8891 442.085 55.9649C444.434 56.1164 446.859 55.8891 449.283 56.268C450.95 56.4953 452.618 56.5711 454.285 56.5711C456.785 56.6469 459.286 56.5711 461.787 56.6469C464.439 56.7227 467.015 57.5562 469.667 58.1624C469.819 58.2382 469.971 58.6171 470.046 58.8444C469.516 59.1475 469.061 59.3749 468.531 59.678C468.91 60.1326 469.061 60.5115 469.364 60.6631C469.971 61.0419 470.653 61.3451 471.335 61.5724C473.835 62.4059 476.412 62.7848 478.988 62.8606C480.049 62.8606 481.11 62.9364 482.095 63.0879C484.292 63.4668 486.49 64.073 488.839 63.4668C489.37 63.3153 489.9 63.4668 490.43 63.391C491.794 63.3153 493.083 63.1637 494.598 63.0879C495.432 64.9066 496.947 66.119 499.145 66.0432C501.342 65.9675 503.464 66.6494 505.586 66.5737C506.116 66.5737 506.647 66.5737 507.101 66.7252C509.45 67.3314 511.8 67.3314 514.224 66.801C515.134 66.5737 516.043 66.7252 517.028 66.801C517.18 66.801 517.331 67.1041 517.331 67.2557C517.331 67.4072 517.18 67.7103 517.028 67.7103C516.346 67.8619 515.588 68.165 514.906 68.0134C514.149 67.8619 513.467 67.9377 512.785 68.2408C511.496 68.847 510.208 68.9985 508.844 68.4681C508.693 68.3923 508.39 68.3923 508.238 68.4681C508.086 68.5439 508.011 68.6954 507.935 68.847C507.935 68.9228 508.011 69.0743 508.086 69.0743C508.541 69.2259 509.072 69.4532 509.526 69.529C510.587 69.6805 511.648 69.6047 512.633 69.7563C512.936 69.8321 513.315 70.211 513.542 70.5141C513.694 70.7414 513.164 71.2718 512.709 71.1203C511.572 70.8172 510.511 71.575 509.375 70.9687C508.996 70.7414 508.39 70.9687 507.859 71.0445C507.48 71.1203 507.026 71.2718 506.647 71.1961C504.904 70.893 503.312 70.5141 501.494 70.5141C499.827 70.5141 498.084 69.6048 496.341 70.0594C495.356 69.6048 494.219 69.9836 493.31 69.7563C492.173 69.4532 491.112 69.529 489.976 69.3774C488.46 69.1501 486.945 69.3774 485.353 68.9985C483.762 68.6954 481.943 68.3165 480.428 68.6954C478.988 68.9985 478.079 68.4681 477.018 67.8619C475.502 68.6954 474.062 69.2259 472.471 68.3923C471.865 68.0892 471.031 68.2408 470.274 68.2408C467.849 68.2408 465.424 68.165 463.075 68.2408C461.029 68.3165 458.907 68.2408 456.861 68.847C455.497 69.2259 454.057 69.6805 452.542 69.6048C450.951 69.529 449.435 69.6048 447.844 69.6048C446.177 69.6048 444.661 70.211 442.918 69.9836C440.796 69.7563 438.523 70.211 436.326 70.211C434.507 70.211 432.84 70.3625 431.173 71.1961C430.112 71.7265 428.899 72.257 427.535 71.8023C426.171 71.3476 424.883 71.3476 423.519 71.8781C422.913 72.1054 422.307 72.1054 421.625 72.0296C418.215 71.8781 414.729 72.3327 411.319 72.0296C408.515 71.8023 405.787 72.7116 402.908 72.7874C402.377 72.7874 401.923 72.939 401.392 72.939C400.483 72.8632 399.498 72.7874 398.589 72.7116C397.149 72.6358 395.633 72.5601 394.269 73.0905C392.981 72.5601 391.617 72.6359 390.253 72.7116C388.813 72.7874 387.374 73.0147 386.01 73.0147C381.993 73.0905 377.977 73.3936 373.885 73.3178C366.914 73.1663 359.867 73.2421 352.819 73.2421C351.683 73.2421 350.546 73.3178 349.409 73.621C348.197 73.9241 346.909 73.7725 345.696 73.621C343.953 73.3936 342.21 73.2421 340.468 73.4694C339.937 73.5452 339.482 73.4694 338.952 73.4694C338.346 73.4694 337.74 73.3178 337.133 73.3936C335.087 73.621 332.966 72.8632 330.92 73.6967C330.768 73.7725 330.541 73.621 330.313 73.5452C329.404 73.4694 328.419 73.3179 327.51 73.2421C321.675 73.1663 315.764 73.2421 309.929 73.1663C309.096 73.1663 308.187 73.2421 307.429 73.0147C306.292 72.6359 305.155 72.6359 304.019 72.7116C303.109 72.7116 302.124 72.939 301.215 72.939C300.154 72.939 299.169 72.7116 298.108 72.6359C297.729 72.6359 297.275 72.7116 296.896 72.7116C296.062 74.0756 295.304 74.6818 294.244 74.303C292.804 73.7725 291.44 73.8483 290 74.3787C289.47 74.6061 288.788 74.5303 288.106 74.4545C286.742 74.3787 285.453 74.1514 284.165 74.0756C282.953 73.9998 281.665 73.8483 280.452 74.0756C279.24 74.3787 277.952 74.4545 276.739 74.4545C274.238 74.4545 271.738 74.6818 269.237 74.5303C266.206 74.303 263.251 75.5154 260.22 74.6061C259.765 74.4545 259.159 74.7576 258.704 74.7576C258.401 74.8334 258.098 74.9092 257.795 74.9092C254.915 74.1514 251.96 74.6061 249.08 74.5303C247.034 74.4545 244.913 74.2272 242.867 74.9092C242.564 74.985 242.26 74.985 241.957 74.9092C240.745 74.5303 239.533 74.6061 238.244 74.985C237.79 75.1365 237.108 75.2123 236.729 75.0607C235.592 74.6061 234.531 74.7576 233.395 75.1365C232.788 75.2881 232.182 75.2123 231.5 75.2123C228.924 75.0607 226.272 75.5154 223.695 74.6819C223.316 74.5303 222.862 74.6819 222.483 74.6819C220.437 74.5303 218.391 75.4396 216.345 74.8334C214.829 75.4396 213.238 75.1365 211.722 75.1365C206.191 75.2123 200.659 75.2123 195.051 75.2123C192.551 75.2123 190.05 75.2881 187.549 75.2123C185.049 75.1365 182.624 75.667 180.123 75.2881C178.608 75.0607 177.168 75.8943 175.501 75.3639C174.061 74.9092 172.394 75.2123 170.803 75.2123C170.045 75.2123 169.287 75.0607 168.605 75.2881C166.483 75.9701 164.286 75.667 162.088 75.8185C159.209 75.9701 156.254 75.667 153.374 76.349C151.707 76.7278 149.812 76.349 148.07 76.5005C146.327 76.7278 144.584 77.2583 142.841 76.5763C142.462 76.4247 142.007 76.6521 141.629 76.7278C140.568 76.8794 139.583 76.9552 138.522 77.1067C137.764 77.1825 137.006 77.031 136.324 77.2583C134.657 77.7887 132.99 77.7129 131.323 77.7129C129.201 77.7129 127.079 77.4856 125.033 77.8645C122.305 78.3949 119.653 78.2434 116.925 78.3949C116.471 78.3949 116.092 78.3192 115.713 78.4707C113.97 79.0769 112.227 78.9254 110.408 78.9254C108.211 79.0012 106.013 78.9254 103.816 79.0012C102.982 79.0012 102.149 79.1527 101.315 79.2285C100.254 79.3043 99.2692 79.6074 98.2083 79.6074C95.253 79.6832 92.3735 79.6074 89.4182 79.6074C86.766 79.6074 84.1138 79.38 81.6131 79.7589C78.961 80.1378 76.4603 80.1378 73.8839 79.6832C73.8081 79.6832 73.6565 79.6832 73.5808 79.6832C64.7906 79.6832 56.0005 79.6832 47.2103 79.6074C44.7855 79.6074 42.4364 79.8347 40.0115 79.0769C39.4811 78.9254 38.7233 78.9254 38.1929 79.1527C37.2835 79.4558 36.45 79.3801 35.4649 79.1527C34.6314 78.9254 33.6463 79.3801 32.7369 79.2285C31.6003 79.0012 30.4636 79.0012 29.327 79.3043C28.8723 79.4558 28.3419 79.3043 27.8114 79.3043C26.7506 79.2285 25.7654 79.0769 24.7045 79.0012C23.3406 78.9254 21.9766 79.0012 20.6126 79.0012C18.6424 78.9254 16.6722 79.1527 14.702 79.9863C15.3082 80.8198 15.9144 81.5018 16.9753 81.426C18.2635 81.3503 19.476 81.7291 20.6126 82.1838C21.7493 82.5627 22.8102 82.7142 24.0226 82.7142C28.1903 82.7142 32.358 82.7142 36.6016 82.79C37.3593 82.79 38.1171 82.6385 38.7991 82.8658C40.8451 83.5478 42.9668 83.3205 45.0128 83.3962C48.4228 83.5478 51.9085 83.0931 55.3185 83.9267C55.7732 84.0782 56.3794 84.0025 56.9098 84.0025C70.8528 84.0024 84.72 84.0024 98.663 84.0024C99.5723 84.0024 100.557 84.0782 101.467 83.7751C102.831 83.3962 104.119 83.472 105.483 83.3962C107.908 83.2447 110.333 83.6993 112.606 82.8658C112.833 82.79 113.061 82.79 113.212 82.8658C114.576 83.472 115.864 82.9416 117.153 82.79C118.365 82.7142 119.729 82.9416 120.866 82.6385C122.836 82.108 124.806 82.2596 126.776 82.1838C128.974 82.108 131.171 82.3353 133.293 81.6534C133.748 81.5018 134.354 81.5776 134.884 81.5776C137.612 81.426 140.34 81.7291 142.993 80.9714C143.447 80.8198 144.053 80.8956 144.584 80.8956C147.009 80.8956 149.434 80.8956 151.783 80.8198C152.54 80.8198 153.298 80.8956 153.98 80.6683C155.344 80.1378 156.632 80.2894 157.996 80.2136C159.967 80.2136 162.013 80.2894 163.983 80.2136C167.014 80.062 170.045 80.5925 173.076 79.8347C173.379 79.7589 173.682 79.9105 173.985 79.9863C176.789 80.5167 179.669 80.4409 182.397 80.062C184.594 79.7589 186.716 79.6831 188.913 79.6831C191.035 79.6831 193.157 79.38 195.203 79.7589C197.401 80.1378 199.522 79.4558 201.72 79.6831C203.311 79.8347 204.827 79.7589 206.418 79.6831C213.314 79.4558 220.209 80.2136 227.105 79.2285C227.332 79.2285 227.56 79.2285 227.711 79.3043C231.424 80.2894 235.137 79.1527 238.851 79.5316C239.76 79.0769 240.593 79.1527 241.579 79.4558C242.185 79.6074 242.867 79.6831 243.397 79.5316C245.292 78.9254 247.11 78.8496 248.929 79.6074C249.308 79.7589 249.762 79.6831 250.141 79.6831C251.733 79.6831 253.248 79.6831 254.839 79.6831C259.765 79.6831 264.691 79.6074 269.616 79.7589C274.542 79.9105 279.467 79.3042 284.317 80.2893C285.226 80.4409 286.211 80.2893 287.12 80.3651C289.924 80.4409 292.728 80.1378 295.532 80.8956C295.911 81.0471 296.365 80.9713 296.82 80.9713C298.714 80.9713 300.609 81.1229 302.503 80.8956C304.473 80.6682 306.368 81.8807 308.338 81.3502C310.99 81.6533 313.718 81.8807 316.37 81.6533C316.749 81.6533 317.204 81.8049 317.583 81.8807C318.189 82.0322 318.795 82.2595 319.402 82.2595C321.902 82.3353 324.403 82.79 326.828 83.0173C329.101 83.2446 331.374 83.5478 333.648 83.5478C333.951 83.5478 334.33 83.5478 334.557 83.6235C335.921 84.2297 337.437 84.0782 338.876 84.154C340.24 84.2297 341.604 84.154 342.892 84.3813C344.408 84.6844 345.923 84.836 347.06 86.1999C348.424 87.7913 350.243 88.6248 352.516 88.7006C354.335 88.7764 356.305 88.9279 357.669 90.595C357.82 90.7466 357.972 90.8981 358.199 90.9739C359.867 91.277 361.458 91.5043 363.125 91.7317C364.337 91.0497 365.55 91.6559 366.762 91.7317C367.899 91.8074 369.111 91.5043 370.172 91.8074C372.673 92.5652 375.173 92.2621 377.674 92.3379C380.175 92.4137 382.675 92.0348 385.176 92.8683C385.631 93.0199 386.237 92.8683 386.767 92.8683C389.041 92.7925 391.314 92.8683 393.587 93.2472C394.421 93.3988 395.254 93.4745 396.088 93.5503C398.361 93.5503 400.635 93.1714 402.908 93.5503C403.59 93.7019 404.348 93.3988 405.03 93.323C405.333 93.2472 405.712 93.0957 405.939 93.2472C407.151 93.7776 408.364 93.7776 409.652 93.4745C410.864 93.1714 412.077 93.6261 413.365 93.1714C414.577 92.7168 416.093 92.8683 417.23 93.9292C416.093 94.5354 415.032 94.9901 413.744 94.9901C412.001 94.9901 410.334 95.369 408.515 95.0659C407.151 94.7627 405.56 94.9143 404.12 95.2174C402.908 95.4447 401.62 95.5963 400.407 95.5963C398.437 95.5963 396.543 96.2025 394.572 95.6721C394.118 95.5205 393.512 95.7479 393.057 95.8994C391.617 96.3541 390.177 96.2783 388.738 95.8994C387.904 95.6721 387.07 95.5963 386.237 95.8236C385.858 95.9752 385.403 96.1267 385.025 96.051C383.357 95.7479 381.766 96.3541 380.099 96.2025C378.432 96.1267 376.765 96.2025 375.098 96.2025C374.037 96.2025 373.052 96.3541 371.991 96.2783C368.884 96.1267 365.777 95.8994 362.67 96.5056C361.913 96.6572 361.003 96.6572 360.245 96.5056C357.366 95.9752 354.562 95.369 351.683 95.8994C350.925 96.051 350.091 95.6721 349.258 95.9752C348.727 96.1267 348.045 95.8994 347.439 95.8236C346.53 95.7479 345.62 95.5963 344.635 95.5205C343.196 95.4448 341.68 95.5205 340.24 95.5205C338.043 95.5205 335.845 95.7479 333.723 95.2174C331.147 95.8236 328.495 95.369 325.918 95.4448C324.176 95.5205 322.433 95.7479 320.69 95.5205C319.326 95.369 317.962 95.4448 316.598 95.4448C315.234 95.4448 313.946 96.2025 312.657 95.5963C310.384 96.3541 308.035 96.733 305.61 96.8845C304.398 96.9603 303.034 97.3392 301.973 97.0361C300.078 96.4299 298.26 96.8087 296.441 97.3392C295.532 96.5056 294.471 95.9752 293.258 96.1267C290.682 96.3541 288.106 95.6721 285.453 96.051C284.847 96.1267 284.165 96.051 283.635 95.8994C281.589 95.369 279.543 95.369 277.421 95.8994C276.284 96.2025 275.148 96.1268 274.011 95.8994C272.192 95.5205 270.298 95.2932 268.479 95.0659C268.252 95.0659 268.1 95.1417 267.873 95.1417C265.6 95.7479 263.326 95.5963 261.053 95.2174C259.538 94.9143 257.946 95.0659 256.355 94.9901C255.067 94.9901 253.854 94.9901 252.718 95.7479C251.733 96.3541 250.747 96.2783 249.687 95.7479C249.232 95.5205 248.702 95.2932 248.247 95.0659C246.352 95.6721 244.382 95.5205 242.412 95.5205C240.366 95.5205 238.244 95.2932 236.198 95.9752C235.213 96.2783 234.152 96.2783 233.092 95.8237C232.485 95.5963 231.879 95.4448 231.273 95.7479C230.06 96.3541 228.772 96.2025 227.56 95.9752C226.196 95.6721 224.908 95.2932 223.619 95.9752C223.392 96.1268 222.937 96.051 222.71 95.8994C221.801 95.4448 220.891 95.6721 219.982 95.8994C219.224 96.1268 218.315 96.051 217.481 96.051C213.996 96.051 210.586 95.9752 207.1 96.051C202.402 96.1268 197.704 95.5963 193.005 96.5056C192.778 96.5056 192.551 96.5056 192.399 96.4299C189.217 95.7479 185.958 95.9752 182.7 96.2025C180.654 96.2783 178.608 96.733 176.562 96.051C174.061 96.2783 171.56 95.6721 169.06 96.5057C168.681 96.6572 168.226 96.5057 167.847 96.4299C167.014 96.3541 166.18 96.2025 165.423 96.051C162.619 95.6721 159.891 96.8845 157.087 96.1268C157.011 96.1268 156.86 96.1268 156.784 96.2025C155.193 96.8845 153.45 96.5814 151.783 96.5814C148.221 96.6572 144.66 96.6572 141.098 96.6572C140.568 96.6572 140.037 96.5814 139.507 96.733C137.915 97.3392 136.173 97.1119 134.506 97.2634C132.535 97.3392 130.565 97.3392 128.595 97.7939C127.155 98.1727 125.564 98.779 124.048 98.0212C123.897 97.9454 123.594 98.0212 123.442 98.097C121.699 98.8548 119.956 98.4759 118.138 98.5516C115.637 98.6274 113.136 98.3243 110.636 99.1579C110.257 99.3094 109.802 99.1579 109.423 99.2336C107.377 99.461 105.256 99.6125 103.285 99.9914C100.557 100.598 97.9052 100.598 95.253 100.067C93.889 99.7641 92.6008 99.7641 91.2368 100.067C90.2517 100.295 89.1908 100.37 88.13 100.446C85.402 100.598 82.674 100.219 80.0218 100.901C79.7187 100.977 79.4156 100.825 79.1125 100.825C78.0516 100.749 77.0665 100.598 76.0056 100.598C69.1857 100.598 62.3657 100.598 55.6216 100.598C53.1967 100.598 50.8476 100.901 48.4228 100.143C48.0439 100.067 47.5892 100.219 47.2103 100.219C46.301 100.295 45.3917 100.522 44.4066 100.522C41.7544 100.598 39.178 100.598 36.5258 100.522C35.6165 100.522 34.6314 100.37 33.722 100.219C30.9941 99.8399 28.3419 99.7641 25.6139 100.295C23.7195 100.673 21.9008 100.673 20.0064 100.295C19.1728 100.143 18.3393 99.9914 17.5057 99.9914C15.384 99.9156 13.338 99.8399 11.2162 99.9914C9.17027 100.219 7.1243 99.1579 5.07832 99.8399C4.47211 100.067 3.79008 99.3852 2.95653 99.6125C1.97143 99.8399 0.910566 99.9156 -0.150313 99.9156C-3.40873 99.9914 -6.66713 99.9914 -9.84977 100.067C-10.3802 100.067 -10.9107 99.9914 -11.4411 100.143C-13.0324 100.749 -14.7753 100.522 -16.4424 100.598C-19.8523 100.749 -23.3381 100.143 -26.748 101.204C-29.8549 101.204 -33.0376 101.128 -36.0687 101.81C-36.9022 101.962 -37.7357 101.81 -38.5693 101.81C-39.4028 101.81 -40.2364 101.81 -41.0699 101.81C-41.9035 101.81 -42.737 101.734 -43.5706 101.886C-44.4041 101.962 -45.1619 102.265 -45.9954 102.341C-46.7532 102.416 -47.511 102.341 -48.4203 102.341C-48.193 102.568 -48.1172 102.871 -47.9656 102.871C-46.829 103.098 -45.6923 103.25 -44.6315 103.629C-40.9184 104.69 -37.1295 104.235 -33.4165 104.159C-32.4314 103.401 -31.3705 104.235 -30.3854 104.008C-29.4003 103.78 -28.3394 103.704 -27.2785 103.704C-25.9145 103.629 -24.5505 103.705 -23.1866 103.629C-22.5803 103.629 -21.8983 103.553 -21.4436 103.174C-20.2312 102.265 -18.8672 102.416 -17.579 102.644C-16.897 102.795 -16.1393 103.098 -15.4573 103.098C-11.8958 102.947 -8.33424 103.553 -4.8485 102.568C-4.39384 102.416 -3.78759 102.492 -3.25715 102.492C-1.28695 102.492 0.683226 102.492 2.72921 102.416C3.79009 102.341 4.77521 102.265 5.83609 102.037C7.04853 101.81 8.1094 101.81 9.0945 102.568C9.47338 102.871 10.1553 103.022 10.5342 102.947C12.3529 102.265 14.2473 102.492 16.1418 102.492C27.3568 102.492 38.5718 102.492 49.711 102.492C51.757 102.492 53.8787 102.719 55.9247 101.962C56.3036 101.81 56.7582 101.886 57.1371 101.886C59.4104 101.962 61.6838 101.734 64.0329 102.34C65.7 102.795 67.5186 102.492 69.2615 103.022C70.3223 103.326 71.6105 103.25 72.6714 102.947C74.2627 102.492 75.7783 102.492 77.2939 102.492C82.1436 102.492 86.9175 102.492 91.7673 102.492C93.3586 102.492 94.8741 102.492 96.4654 102.113C97.6021 101.81 98.9661 101.962 100.179 102.265C101.77 102.644 103.285 102.644 104.801 102.265C105.483 102.113 106.241 102.037 106.923 102.189C109.423 102.719 111.848 102.719 114.349 102.189C114.803 102.113 115.334 102.189 115.864 102.265C117.456 102.492 119.123 102.492 120.714 102.265C121.927 102.113 123.215 102.037 124.427 101.886C125.488 101.81 126.473 101.659 127.534 101.507C128.292 101.355 128.974 101.355 129.656 101.583C131.399 102.113 133.142 102.037 134.96 101.734C136.93 101.431 138.825 100.749 140.795 100.673C142.765 100.598 144.66 99.8398 146.63 100.522C146.781 100.598 147.085 100.522 147.236 100.522C149.964 99.6883 152.844 100.143 155.647 99.9914C156.557 99.9156 157.618 100.143 158.451 99.9156C160.421 99.3094 162.391 99.5367 164.362 99.3852C166.559 99.3094 168.757 99.5367 170.879 98.8547C171.333 98.7032 171.939 98.779 172.47 98.779C185.049 98.779 197.552 98.779 210.131 98.7032C212.101 98.7032 214.071 98.8547 216.042 98.1727C216.648 97.9454 217.481 98.2485 218.163 98.3243C218.77 98.4001 219.452 98.7032 219.982 98.5516C222.786 97.7939 225.59 98.1727 228.393 98.097C232.485 97.9454 236.577 98.5516 240.593 97.7181C240.821 97.6423 241.048 97.7181 241.2 97.7181C244.003 98.4001 246.807 98.0212 249.611 98.097C251.051 98.097 252.49 97.9454 253.93 98.097C255.446 98.2485 257.037 98.0212 258.628 98.0212C259.007 98.0212 259.462 97.9454 259.841 97.9454C261.432 98.0212 262.948 98.097 264.539 98.1727C270.828 98.1727 277.118 98.1727 283.407 98.1727C284.014 98.1727 284.696 98.097 285.302 98.3243C287.12 98.9305 289.015 98.7789 290.909 98.7789C293.031 98.7789 295.077 98.9305 297.199 98.7789C299.396 98.6274 301.518 99.3852 303.716 99.0063C306.671 99.764 309.778 99.3094 312.733 99.4609C313.339 99.4609 314.021 99.4609 314.628 99.6883C315.764 100.143 316.901 100.067 318.038 100.067C320.159 100.143 322.205 100.143 324.327 100.143C325.388 100.825 326.525 100.143 327.661 100.37C328.874 100.598 330.162 100.598 331.374 100.749C332.132 100.825 332.89 100.749 333.572 100.976C335.315 101.507 337.133 101.431 338.876 101.204C341.604 100.901 344.256 101.204 346.909 101.507C349.106 101.81 351.228 101.962 353.425 101.962C354.183 101.962 354.865 101.962 355.623 102.037C357.896 102.34 360.17 102.947 362.443 103.022C366.232 103.174 369.945 103.477 373.658 103.78C375.022 103.856 376.386 103.78 377.75 103.856C378.432 103.932 379.19 104.008 379.872 104.235C380.781 104.462 381.69 104.765 382.6 104.993C383.585 104.159 384.494 105.75 385.479 105.144C385.631 105.068 386.161 105.144 386.313 105.372C387.146 106.508 388.283 106.357 389.42 106.281C390.102 106.205 390.784 106.054 391.39 105.978C391.92 106.584 392.375 107.039 392.83 107.569C393.208 107.418 393.587 107.266 393.966 107.114C395.254 106.357 396.467 106.357 397.831 106.963C398.892 107.418 400.028 107.569 401.089 107.872C401.241 107.948 401.317 108.175 401.392 108.327C401.165 108.933 400.635 108.933 400.104 108.933C398.058 109.009 395.936 108.63 393.89 109.464C393.512 109.615 393.057 109.539 392.678 109.464C390.026 108.857 387.298 109.009 384.57 109.009C383.66 109.009 382.675 109.085 381.766 108.857C379.114 108.1 376.386 108.403 373.658 108.478C371.915 108.478 370.172 108.251 368.429 108.1C367.596 108.024 366.762 107.796 365.929 107.796C363.049 107.645 360.094 108.1 357.214 107.19C356.911 107.114 356.532 107.114 356.305 107.19C354.941 107.569 353.653 107.19 352.289 107.114C350.773 106.963 349.258 106.736 347.666 106.66C345.393 106.508 343.044 106.887 340.846 105.978C337.891 106.054 335.012 105.75 332.132 105.372C330.692 105.22 329.253 105.523 327.813 105.372C326.373 105.22 324.857 105.296 323.418 105.296C322.812 105.296 322.13 105.22 321.523 105.144C319.326 104.765 317.204 104.69 315.006 104.69C313.718 104.69 312.43 104.917 311.293 104.538C309.551 104.008 307.808 104.083 305.989 104.083C301.821 104.083 297.654 104.083 293.41 104.008C291.97 104.008 290.53 103.704 289.091 103.704C287.424 103.78 285.832 103.401 284.165 103.401C279.012 103.401 273.935 103.401 268.782 103.401C267.343 103.401 265.827 103.25 264.387 103.553C262.796 103.932 261.356 103.098 259.765 103.401C258.78 103.553 257.643 103.78 256.658 103.629C254.764 103.401 252.945 103.401 251.051 103.704C250.066 103.856 248.929 103.856 248.02 103.704C246.807 103.477 245.822 103.401 244.685 103.78C244.003 104.008 243.246 103.932 242.488 103.932C240.518 103.932 238.547 103.932 236.501 103.932C235.592 103.932 234.531 103.856 233.698 104.159C232.258 104.614 230.818 104.462 229.378 104.614C223.013 104.917 216.648 104.083 210.283 105.22C206.342 105.068 202.326 105.675 198.386 104.917C197.628 104.765 196.794 105.144 196.037 105.447C195.809 105.523 195.733 106.129 195.506 106.508C194.9 106.508 194.369 106.508 193.915 106.508C187.928 106.508 182.018 106.508 176.031 106.508C175.274 106.508 174.516 106.357 173.834 106.584C171.712 107.342 169.515 107.039 167.317 107.19C166.711 107.19 166.029 107.114 165.423 107.266C163.68 107.872 161.937 107.721 160.118 107.721C157.845 107.796 155.496 107.796 153.222 107.796C151.555 107.872 149.964 108.478 148.297 108.327C146.706 108.175 145.19 108.251 143.599 108.327C142.462 108.327 141.25 108.251 140.189 108.554C138.825 108.933 137.537 108.933 136.173 108.933C134.43 108.933 132.611 108.933 130.868 109.009C130.11 109.009 129.428 109.085 128.671 109.236C127.61 109.388 126.625 109.539 125.564 109.615C122.987 109.767 120.335 109.388 117.759 110.221C114.197 110.07 110.712 110.828 107.15 110.903C105.483 110.903 103.816 110.903 102.149 110.903C101.315 110.903 100.482 110.979 99.6481 111.131C97.299 111.661 94.8741 111.661 92.525 111.131C91.0853 110.828 89.6455 110.752 88.2057 111.131C87.7511 111.282 87.1448 111.434 86.6902 111.206C85.3262 110.676 84.038 110.828 82.674 110.828C80.5522 110.752 78.4305 110.6 76.3845 110.903C74.2628 111.206 72.2925 110.828 70.1708 110.828C69.6404 110.828 69.0341 110.752 68.6553 110.903C67.2155 111.51 65.7757 111.358 64.3359 111.434C63.654 111.434 62.972 111.585 62.29 111.585C62.6689 111.964 63.1235 112.04 63.5024 112.04C65.0937 111.964 66.6093 112.116 68.1248 112.798C68.9583 113.177 69.6404 113.252 70.5497 112.874C70.9286 112.722 71.5348 112.874 72.0652 112.949C72.141 112.949 72.2925 113.101 72.2925 113.177C72.2925 113.328 72.2168 113.555 72.141 113.707C71.9895 113.859 71.7621 113.934 71.6106 113.934C68.6553 113.934 65.7757 114.01 62.8204 113.934C61.4564 113.934 60.244 113.48 59.0316 113.025C59.0316 112.495 58.9558 112.116 58.9558 111.51C56.2278 111.51 53.4998 111.206 50.6961 111.737C50.3172 112.267 50.0141 112.798 49.6352 113.252C49.029 114.162 48.1197 114.692 46.983 114.692C46.9073 114.692 46.8315 114.919 46.6799 114.995C47.0588 115.223 47.3619 115.374 47.7408 115.601C47.2104 116.587 46.301 116.662 45.5432 116.359C44.255 115.753 42.8911 115.905 41.5271 115.905C40.2389 115.905 39.0264 115.905 37.7382 115.905C36.1469 115.905 34.6314 115.753 33.1158 115.45C31.2972 115.071 29.327 115.071 27.5083 115.374C25.6139 115.753 23.7952 115.829 21.9008 115.829C20.5368 115.829 19.2486 115.905 17.8846 116.359C16.748 116.814 15.4598 116.89 14.2473 117.041C11.974 117.193 9.62493 116.89 7.4274 117.647C6.97273 117.799 6.36654 117.647 5.8361 117.647C4.77522 117.647 3.79011 117.647 2.65345 117.647C2.80501 118.026 2.88077 118.178 2.88077 118.329C2.88077 118.481 2.88077 118.633 2.88077 118.784C2.04723 118.708 1.21367 118.481 0.455898 118.557C-3.1814 119.163 -6.74291 119.618 -10.3802 119.542C-11.9715 119.542 -13.5629 119.315 -15.0784 119.693C-17.1244 120.224 -19.2461 120.072 -21.2921 120.148C-21.8226 120.148 -22.4287 120.224 -23.3381 120.3C-20.0797 121.815 -17.1244 122.573 -13.9417 122.649C-13.4113 122.649 -12.8809 122.649 -12.4262 122.876C-9.31934 123.937 -6.0609 123.937 -2.87826 124.392C-0.604951 124.695 1.13788 125.604 2.19876 127.498C2.80498 128.559 3.63855 128.862 4.7752 128.862C7.88206 128.862 11.0647 129.014 14.1716 128.787C17.2784 128.559 20.3853 129.62 23.4921 128.862C23.7953 128.787 24.1741 128.862 24.4015 128.938C25.6139 129.469 26.9021 129.317 28.1145 129.317C31.1456 129.393 34.1767 129.393 37.2078 129.393C40.2389 129.393 43.1942 129.62 46.2253 129.469C48.1955 129.317 50.2414 129.241 52.1359 129.544C54.3334 129.923 56.5309 129.923 58.6527 129.999C60.0167 130.075 61.3049 129.696 62.6689 129.544C63.9571 129.393 65.3211 129.923 66.6851 129.999C68.1248 130.075 69.6404 129.999 71.0801 129.999C72.5199 129.999 73.9597 129.317 75.3994 129.923C75.551 129.999 75.8541 129.923 76.0056 129.848C77.2181 129.317 78.5063 129.469 79.7187 129.469C82.1436 129.469 84.5685 129.469 86.9176 129.393C87.8269 129.393 88.8119 129.469 89.7213 129.166C90.9337 128.787 92.2219 128.787 93.4344 128.787C95.6319 128.787 97.8294 128.787 100.027 128.711C100.861 128.711 101.77 128.862 102.528 128.635C104.346 128.029 106.241 128.18 108.135 128.18C108.893 128.18 109.651 128.256 110.333 128.029C111.697 127.574 112.985 127.65 114.349 127.574C115.94 127.498 117.531 127.65 119.047 127.347C120.487 127.044 121.927 126.968 123.366 126.968C125.791 126.892 128.14 127.12 130.489 126.438C130.944 126.286 131.55 126.362 132.081 126.362C137.764 126.286 143.371 126.286 149.055 126.286C149.888 126.286 150.798 126.438 151.555 126.21C153.222 125.68 154.89 125.831 156.557 125.756C160.952 125.68 165.347 125.68 169.742 125.68C171.106 125.68 172.394 125.452 173.758 125.301C175.046 125.149 176.41 125.604 177.774 125.68C178.987 125.756 180.275 125.604 181.487 125.377C182.624 125.149 183.912 125.604 185.2 125.604C185.882 125.604 186.716 125.604 187.398 125.377C188.61 124.998 189.899 124.998 191.111 125.377C192.778 125.831 194.369 125.831 196.037 125.528C196.491 125.452 197.022 125.377 197.552 125.452C199.598 125.756 201.72 125.831 203.766 125.225C204.524 124.998 205.433 124.998 206.266 125.074C208.54 125.377 210.813 125.074 213.086 125.074C215.284 125.074 217.481 125.074 219.679 125.074C221.801 125.074 223.847 125.074 225.968 125.074C228.166 126.134 230.288 125.074 232.41 124.998C235.137 124.922 237.865 124.998 240.593 125.074C241.957 125.149 243.246 125.528 244.61 125.528C245.974 125.528 247.262 125.225 248.626 125.074C250.596 124.846 252.49 125.831 254.461 125.301C255.976 125.831 257.567 125.604 259.159 125.68C262.19 125.831 265.221 125.452 268.176 126.134C269.464 126.438 270.828 126.059 272.192 126.059C272.571 126.059 273.026 125.907 273.405 125.983C274.769 126.438 276.133 126.21 277.421 126.286C278.861 126.362 280.376 126.21 281.816 126.513C283.18 126.816 284.468 126.968 285.832 126.892C287.954 126.816 290 127.044 291.97 127.877C291.743 128.862 290.985 128.787 290.303 128.711C290 128.711 289.773 128.635 289.47 128.635C289.242 129.317 289.091 129.848 288.939 130.454C286.969 131.06 285.15 131.666 283.029 130.984C281.665 130.605 280.149 130.833 278.709 130.757C276.512 130.605 274.314 130.984 272.192 130.226C271.814 130.075 271.359 130.075 270.98 130.151C269.843 130.454 268.707 130.226 267.57 130.151C267.04 130.075 266.433 130.226 265.448 130.302C266.964 130.757 267.115 131.666 267.418 132.651C264.842 132.651 262.417 132.651 259.992 132.651C259.083 132.651 258.249 132.424 257.567 131.59C258.628 131.212 259.765 131.439 260.523 130.226C258.098 129.999 255.749 130.075 253.4 129.544C253.172 129.469 252.945 129.469 252.794 129.544C251.051 130.151 249.308 129.999 247.565 129.544C247.262 129.469 246.959 129.544 246.656 129.544C238.926 129.544 231.197 129.544 223.392 129.544C223.089 129.544 222.786 129.696 222.483 129.772C223.241 130.151 223.998 130.151 224.68 130.151C226.044 130.151 227.408 130.151 228.772 130.151C229.606 130.151 230.212 130.454 230.591 131.136C230.894 131.59 231.197 132.045 231.652 132.651C229.378 132.727 227.408 132.5 225.438 132.803C223.392 133.182 221.346 132.803 219.3 133.258C217.709 133.561 216.193 133.182 214.753 132.424C214.678 131.59 214.678 130.833 214.602 129.999C214.223 129.848 213.92 129.62 213.617 129.62C212.404 129.62 211.116 129.62 209.449 129.62C210.586 130.151 211.419 130.302 211.874 130.833C212.329 131.363 212.556 132.121 213.465 132.5C211.495 132.803 209.752 133.182 208.009 133.258C206.266 133.333 204.448 133.788 202.705 132.348C203.387 131.894 203.993 131.287 204.751 130.984C205.433 130.681 206.191 130.681 206.948 130.53C204.675 130.075 202.402 129.999 200.128 130.075C196.719 130.226 193.233 130.151 189.747 130.151C189.368 130.151 188.913 130.302 188.535 130.302C188.989 130.605 189.368 130.681 189.747 130.681C192.551 130.681 195.43 130.681 198.234 130.757C198.992 130.757 199.674 130.833 200.432 130.833C200.583 130.833 200.886 131.06 200.886 131.212C200.886 131.515 200.886 131.894 200.659 132.045C199.598 133.03 198.31 133.333 196.87 133.258C195.809 133.182 194.824 132.879 193.763 133.258C193.384 133.409 192.93 133.258 192.551 133.106C191.111 132.576 189.747 132.651 188.231 133.106C186.64 133.561 184.897 133.485 183.23 133.106C183.003 133.03 182.624 132.727 182.548 132.5C182.472 132.272 182.7 131.969 182.851 131.666C183.458 130.681 184.67 130.908 186.11 130.226C179.744 130.075 173.985 130.151 168.075 130.151C168.378 131.136 167.999 131.742 167.165 131.894C166.332 132.045 165.574 132.272 164.968 132.879C164.741 133.106 164.21 133.258 163.831 133.258C162.164 133.258 160.497 133.258 158.83 133.258C157.618 133.258 156.329 133.182 154.586 133.106C156.178 132.651 157.239 132.424 158.3 132.045C160.27 131.287 162.24 130.681 164.362 130.757C164.741 130.757 165.119 130.681 165.423 130.605C164.134 130.302 162.846 129.999 161.709 130.378C159.815 130.908 157.996 130.757 156.102 130.833C152.237 130.908 148.373 130.908 144.508 130.908C143.902 130.908 143.22 130.908 142.614 130.984C142.311 131.06 142.007 131.363 141.629 131.666C142.765 132.121 143.75 132.5 144.66 132.879C144.811 132.954 144.887 133.258 144.887 133.409C144.887 133.561 144.66 133.864 144.508 133.864C143.371 133.94 142.159 133.864 141.098 134.167C139.052 134.697 136.93 134.622 134.884 134.622C132.763 134.622 130.717 134.622 128.595 134.622C127.686 134.622 126.625 134.47 125.791 134.773C124.048 135.379 122.305 135.152 120.487 135.228C119.047 135.304 117.531 135.076 116.092 135.455C114.728 135.758 113.439 135.91 112.076 135.91C110.181 135.834 108.438 136.819 106.544 136.137C104.195 136.895 101.77 136.516 99.345 136.592C97.8294 136.592 96.1623 137.046 95.0257 135.531C94.8741 135.304 94.1921 135.304 93.8132 135.379C93.1313 135.531 92.4493 135.758 91.7673 135.986C90.7064 136.364 89.6455 136.971 88.5089 137.122C86.5387 137.35 84.5685 137.501 82.5983 137.804C81.3858 138.031 80.0976 137.804 79.3398 136.592C79.5672 135.986 79.7945 135.455 80.1734 134.773C79.0367 134.773 77.9001 134.318 77.2939 135C76.233 135.986 75.0963 136.061 73.8839 136.061C73.3535 136.061 73.505 136.743 73.2777 136.971C72.5957 137.728 71.6863 137.88 70.7012 137.88C68.049 137.88 65.4726 137.88 62.8204 137.88C61.4564 137.88 60.0925 137.501 58.9558 136.668C58.2738 136.213 57.7434 136.137 56.9098 136.364C56.2278 136.592 55.4701 136.516 54.7123 136.592C54.1819 136.668 53.6514 136.743 53.2725 137.046C52.439 137.728 51.6054 137.804 50.6203 137.804C49.5594 137.804 48.4986 137.804 47.5135 137.804C45.6948 137.88 43.952 137.653 42.4364 136.668C41.224 135.91 39.9357 135.758 38.5718 136.364C37.5109 136.819 36.3742 137.046 35.2376 137.122C33.2674 137.274 31.2972 137.122 29.2512 137.122C28.4934 137.122 27.8114 136.971 27.281 136.364C26.9021 135.986 26.5232 135.758 26.0685 135.379C24.4772 136.44 22.8859 136.668 21.2188 135.91C20.6884 135.682 20.0064 135.607 19.4002 135.455C17.7331 135 16.2175 135.076 14.2473 135.607C16.2175 136.44 18.1878 136.971 19.8549 137.956C21.5977 139.017 23.5679 139.395 25.3866 140.153C25.7655 140.305 26.2201 140.381 26.5232 140.608C29.327 142.275 32.5854 142.73 35.6922 143.791C36.45 144.018 37.3593 143.942 38.1171 143.791C38.7233 143.639 39.3296 143.639 39.9358 143.791C42.3606 144.245 44.7855 144.927 47.3619 144.7C47.5135 144.7 47.7408 144.851 47.8924 144.927C42.8153 145.306 37.814 145.23 32.8127 145.306C31.0698 145.306 29.4027 144.851 28.1145 143.866C25.9928 142.275 23.5679 141.82 21.0673 141.517C20.5368 141.441 19.9306 141.441 19.5517 141.138C18.7182 140.532 17.8846 140.381 16.8995 140.229C15.6871 140.077 14.3989 139.85 13.2622 139.32C10.3827 137.956 7.20008 137.728 4.169 137.274C2.5019 136.971 0.910555 136.819 -0.453432 136.061C-1.43853 136.289 -2.19628 136.44 -3.02982 136.592C-4.24226 136.743 -5.53049 137.046 -6.74292 136.895C-8.10691 136.668 -9.16776 137.425 -10.456 137.274C-11.0622 137.198 -11.6684 137.425 -12.2746 137.35C-16.3666 137.274 -20.3828 136.668 -24.399 137.728C-25.0052 137.88 -25.6114 137.804 -26.2934 137.804C-28.4151 137.804 -30.4611 137.728 -32.5829 137.804C-33.6438 137.804 -34.7804 137.653 -35.6898 137.956C-37.4326 138.562 -39.1755 138.486 -40.9942 138.41C-42.8886 138.41 -44.7072 138.714 -46.6016 138.486C-46.9805 138.41 -47.4352 138.41 -47.8141 138.562C-49.6327 139.244 -51.5271 139.017 -53.4216 139.092C-55.0887 139.092 -56.8316 138.865 -58.4229 139.244C-60.1658 139.623 -61.9086 139.547 -63.7273 139.623C-64.7124 139.699 -65.6975 139.699 -66.4552 139.092C-67.0614 138.638 -67.4403 137.88 -67.9708 137.274C-69.3348 137.122 -70.6987 137.046 -71.9869 137.577C-73.4267 138.107 -74.7907 136.895 -76.3062 137.198C-76.6094 137.274 -76.9125 137.35 -77.2156 137.425C-79.2616 137.577 -81.3075 138.107 -83.3535 137.274C-84.6417 136.743 -86.0057 136.819 -87.2939 137.425C-87.9759 137.804 -88.6579 137.728 -89.4157 137.653C-90.4008 137.501 -91.4617 137.425 -92.4468 137.501C-92.9014 137.501 -93.4318 137.728 -94.1896 138.032C-92.7499 138.941 -91.6132 139.623 -90.5523 140.305C-89.4157 140.987 -88.2032 141.669 -87.1424 142.502C-86.915 142.654 -86.8393 143.26 -86.915 143.639C-86.915 143.866 -87.4455 144.094 -87.6728 144.094C-89.643 143.866 -91.5374 143.791 -93.5077 143.866C-94.8716 143.866 -96.3114 143.866 -97.5238 143.336C-99.1151 142.654 -100.403 143.791 -101.767 143.487C-102.07 143.412 -102.374 143.487 -102.677 143.487C-105.026 143.412 -107.299 142.427 -109.724 142.73C-110.785 142.123 -111.997 142.275 -113.134 142.275C-115.635 142.275 -118.135 142.502 -120.56 141.669C-120.939 141.517 -121.394 141.593 -121.772 141.593C-122.909 141.517 -124.046 141.441 -125.182 141.366C-126.774 141.29 -128.289 141.063 -129.881 141.063C-132.457 141.138 -135.033 141.214 -137.61 140.532C-138.443 140.305 -139.277 140.532 -140.035 140.987C-141.096 141.593 -142.157 141.745 -143.369 141.669C-144.506 141.669 -145.642 141.669 -146.855 141.669C-147.461 141.669 -148.143 141.745 -148.598 142.199C-149.355 142.881 -150.265 142.957 -151.25 142.957C-152.083 142.957 -152.917 142.957 -153.599 142.957C-154.357 143.791 -154.963 144.473 -155.569 145.155C-155.645 145.23 -155.569 145.382 -155.569 145.458C-154.205 146.14 -153.902 146.064 -153.372 144.169C-152.917 144.169 -152.311 144.094 -151.932 144.321C-151.098 144.7 -150.416 145.382 -149.355 145.003C-149.28 145.306 -149.204 145.533 -149.052 145.837C-147.006 146.67 -145.036 145.988 -143.217 145.912C-142.005 145.079 -142.157 144.018 -142.081 143.033C-140.944 142.805 -140.035 143.033 -139.05 143.487C-137.61 144.245 -136.019 144.851 -134.351 144.169C-133.973 144.018 -133.215 144.169 -132.912 144.473C-132.154 145.23 -131.32 145.458 -130.335 145.382C-127.304 145.003 -124.349 145.306 -121.394 146.215C-121.242 146.291 -121.015 146.215 -120.863 146.215C-120.484 145.988 -120.181 145.533 -119.802 145.533C-117.756 145.609 -115.786 146.064 -113.892 147.125C-114.271 147.428 -114.498 147.807 -114.725 147.807C-117.908 148.034 -121.166 148.261 -124.576 147.579C-125.031 148.413 -125.789 148.716 -126.85 148.64C-127.077 148.64 -127.304 148.64 -127.456 148.64C-128.82 148.64 -130.108 148.792 -131.169 147.579C-131.472 147.201 -132.078 147.428 -132.23 148.186C-132.381 148.716 -133.215 148.716 -133.442 148.261C-133.67 147.807 -133.821 147.276 -134.124 146.897C-134.503 146.291 -135.109 146.14 -135.791 146.367C-135.943 146.519 -136.094 146.67 -136.17 146.822C-136.246 147.125 -136.246 147.428 -136.322 147.731C-136.625 148.792 -137.004 149.247 -137.989 149.247C-139.201 149.247 -140.489 149.019 -141.702 149.171C-143.52 149.474 -144.96 149.019 -146.021 147.807C-147.385 147.958 -148.522 148.034 -149.734 148.11C-149.507 148.337 -149.431 148.413 -149.28 148.565C-149.128 148.716 -148.976 148.792 -148.522 149.095C-149.583 149.095 -150.265 149.095 -150.871 149.095C-151.022 148.716 -151.174 148.413 -151.25 148.186C-151.477 148.337 -151.78 148.413 -151.932 148.64C-152.159 148.943 -152.235 149.322 -152.538 149.853C-153.371 149.398 -154.129 148.943 -154.811 148.64C-155.266 148.413 -155.721 148.11 -156.251 148.11C-157.388 148.034 -158.6 147.883 -159.661 148.186C-161.252 148.64 -162.768 148.64 -164.283 148.64C-167.087 148.64 -169.967 148.64 -172.77 148.64C-173.225 148.64 -173.756 148.716 -174.589 148.868C-173.831 149.55 -173.301 150.004 -172.846 150.459C-173.831 150.535 -174.741 150.686 -175.347 149.777C-175.802 149.095 -176.559 149.171 -177.317 149.55C-177.166 150.08 -176.18 149.625 -176.332 150.459C-176.711 151.141 -177.317 151.217 -177.923 150.989C-178.378 150.838 -178.984 150.611 -179.287 150.232C-179.969 149.322 -180.803 149.247 -181.788 149.247C-182.697 149.322 -183.682 149.171 -184.592 149.247C-185.728 149.398 -186.865 149.701 -187.926 150.004C-188.077 150.08 -188.077 150.611 -188.229 150.762C-188.684 151.217 -189.593 151.065 -190.048 150.459C-190.426 149.929 -190.578 149.929 -190.805 150.307C-191.866 151.823 -192.094 151.975 -193.458 151.368C-194.367 150.914 -195.276 150.383 -196.186 149.853C-197.019 150.08 -197.853 150.307 -198.61 150.611C-198.989 150.762 -198.686 151.671 -199.444 151.671C-202.02 151.52 -204.673 152.05 -207.249 151.217C-208.689 150.762 -210.129 150.989 -211.341 152.05C-212.175 151.747 -212.932 151.368 -213.69 151.141C-214.827 150.762 -215.357 151.747 -216.266 152.202C-217.858 151.141 -219.676 151.065 -221.647 151.141C-223.086 151.217 -224.602 151.141 -226.042 151.217C-226.421 151.217 -226.799 151.368 -227.178 151.444C-227.178 151.975 -227.254 152.353 -227.254 152.808C-228.315 153.187 -229.3 153.035 -230.285 152.505C-231.195 151.975 -232.18 151.747 -233.316 151.747C-237.636 151.747 -241.879 151.747 -246.198 151.747C-247.411 151.747 -248.548 152.05 -249.911 152.808C-249.078 153.035 -248.472 153.49 -248.017 153.339C-245.516 152.581 -243.016 153.035 -240.515 152.96C-239.378 152.884 -238.393 153.414 -236.726 154.172C-240.06 154.172 -242.637 154.172 -245.289 154.248C-246.123 154.248 -247.032 154.096 -247.79 154.399C-249.154 154.93 -250.442 154.778 -251.806 154.854C-252.715 154.93 -253.7 154.93 -254.61 155.157C-255.443 155.384 -256.125 155.157 -256.58 154.627C-256.883 154.324 -256.731 153.717 -256.807 153.187C-258.777 152.96 -260.748 152.657 -262.642 152.429C-263.324 152.353 -264.158 152.353 -264.84 152.581C-266.279 153.111 -267.719 153.035 -269.159 153.035C-271.811 153.035 -274.387 153.035 -277.04 153.035C-284.39 153.035 -291.665 153.035 -299.015 153.035C-299.924 153.035 -300.909 153.035 -301.819 152.884C-304.698 152.353 -307.578 152.202 -310.533 152.884C-311.139 153.035 -311.821 153.035 -312.352 152.884C-314.019 152.278 -315.686 152.429 -317.353 152.429C-320.384 152.429 -323.415 152.505 -326.446 152.429C-330.008 152.278 -333.569 152.96 -337.055 152.126C-337.207 152.05 -337.434 152.202 -337.661 152.202C-338.874 152.278 -340.162 152.429 -341.374 152.429C-345.087 152.278 -348.876 152.808 -352.589 151.899C-353.953 152.126 -355.242 152.202 -356.378 151.293C-359.485 150.459 -362.592 150.307 -365.699 150.989C-367.214 151.293 -368.578 151.444 -369.942 150.686C-370.321 150.535 -370.776 150.232 -371.079 150.307C-373.352 150.989 -375.398 149.929 -377.52 149.701C-377.899 149.625 -378.354 149.625 -378.732 149.701C-379.642 149.777 -380.551 149.929 -381.536 150.004C-382.976 150.08 -384.492 150.08 -385.931 150.004C-386.689 150.004 -387.371 150.08 -387.977 150.611C-388.811 151.368 -389.644 151.293 -390.478 150.535C-391.084 150.004 -391.766 149.929 -392.524 149.929C-395.1 150.08 -397.677 149.853 -400.253 150.383C-401.011 150.535 -401.92 150.383 -402.678 150.156C-403.436 149.929 -404.118 149.701 -404.8 150.08C-406.012 150.686 -407.225 150.535 -408.513 150.535C-412.681 150.535 -416.848 150.611 -421.092 150.535C-423.593 150.459 -426.093 150.914 -428.594 150.004C-428.897 149.929 -429.276 149.853 -429.503 150.004C-430.867 150.611 -432.231 150.156 -433.444 149.777C-434.808 149.398 -436.096 149.247 -437.46 149.247C-438.824 149.247 -440.188 149.247 -441.552 149.247C-442.309 149.247 -443.067 149.322 -443.749 149.019C-444.962 148.565 -446.174 148.565 -447.462 148.565C-448.826 148.64 -450.19 148.489 -451.478 147.958C-452.994 147.352 -454.51 147.125 -456.101 147.579C-456.556 147.731 -457.086 147.579 -457.616 147.579C-458.526 147.504 -459.511 147.428 -460.42 147.352C-461.254 147.276 -462.087 147.201 -462.921 147.125C-463.982 146.973 -464.967 146.822 -466.028 146.746C-470.499 146.594 -474.969 146.973 -479.44 146.14C-481.259 145.837 -483.229 146.064 -485.048 146.064C-485.957 146.064 -486.942 145.988 -487.851 145.912C-488.988 145.837 -490.125 145.533 -491.261 145.533C-493.156 145.458 -495.05 145.533 -496.945 145.533C-498.006 145.533 -498.991 145.458 -499.976 145.003C-501.491 144.321 -503.234 144.17 -504.901 144.321C-505.962 144.397 -506.947 144.624 -508.008 144.7C-508.917 144.776 -509.903 145.003 -510.812 144.776C-514.525 143.942 -518.238 144.094 -521.951 145.003C-522.86 145.23 -523.77 145.534 -524.603 145.837C-526.27 146.367 -527.862 146.291 -529.529 146.064C-529.68 146.064 -529.984 145.837 -529.984 145.685C-529.984 145.382 -529.984 145.003 -529.756 144.852C-527.559 144.473 -526.801 144.018 -526.043 143.715C-525.21 143.336 -524.3 143.109 -523.391 142.806C-523.542 141.896 -524.224 141.896 -524.831 141.82C-526.422 141.745 -528.013 141.972 -529.529 141.669C-531.575 141.138 -533.697 141.214 -535.743 141.138C-536.273 141.138 -536.879 141.214 -537.334 141.063C-539.38 140.078 -541.274 141.138 -543.244 141.517C-540.895 141.517 -538.622 142.957 -536.197 141.745C-534.909 141.745 -533.697 141.745 -532.408 141.82C-532.029 141.82 -531.726 142.199 -531.423 142.427C-532.257 143.488 -533.242 143.639 -534.303 143.563C-536.652 143.412 -538.849 144.17 -541.123 144.321C-541.653 144.321 -542.184 144.776 -542.941 145.155C-540.592 145.837 -538.622 146.216 -536.5 146.064C-535.439 145.988 -534.379 146.14 -533.545 146.822C-533.393 146.897 -533.318 147.201 -533.318 147.352C-533.318 147.504 -533.545 147.807 -533.697 147.807C-535.439 147.883 -537.258 148.186 -539.001 147.807C-540.971 147.428 -542.941 147.428 -544.912 147.276C-545.518 147.276 -546.2 147.352 -546.806 147.125C-548.776 146.443 -550.746 146.594 -552.717 146.594C-555.52 146.594 -558.4 146.67 -561.204 146.594C-562.795 146.594 -564.235 146.822 -565.75 147.428C-568.781 148.565 -573.252 148.261 -574.465 144.321C-574.768 143.336 -575.601 142.881 -576.435 142.427C-577.041 142.124 -577.875 142.048 -578.026 140.987C-577.723 140.835 -577.42 140.456 -577.041 140.381C-575.904 140.305 -574.692 140.229 -573.631 140.532C-572.494 140.835 -571.358 140.911 -570.221 140.911C-568.478 140.911 -566.66 140.835 -564.917 140.911C-563.098 140.987 -561.431 140.381 -559.688 140.002C-559.461 139.926 -559.309 139.547 -559.158 139.32C-559.082 139.244 -559.309 138.865 -559.461 138.865C-561.279 138.486 -563.022 137.728 -564.917 138.107C-565.75 138.259 -566.66 138.562 -567.342 138.335C-569.312 137.728 -571.282 137.88 -573.252 137.956C-575.601 138.032 -577.799 137.425 -580.072 137.122C-580.451 137.046 -580.678 136.364 -580.375 136.137C-579.845 135.682 -579.239 135.228 -578.708 134.773C-578.557 134.697 -578.632 134.394 -578.557 134.243C-578.86 133.333 -580.375 133.561 -580.375 132.197C-579.466 131.515 -578.557 130.984 -577.344 130.909C-576.738 130.833 -576.056 130.757 -575.526 130.53C-574.389 129.923 -573.176 129.848 -571.964 129.62C-569.009 129.014 -566.053 128.484 -563.022 128.105C-561.204 127.877 -559.309 127.499 -557.491 127.195C-554.99 126.817 -552.489 126.665 -550.671 124.543C-550.443 124.24 -549.913 124.164 -549.534 124.013C-548.397 123.482 -547.109 123.331 -545.821 123.407C-543.472 123.558 -541.274 122.725 -539.001 122.573C-538.546 122.573 -538.092 122.194 -537.485 121.815C-538.016 121.588 -538.395 121.588 -538.622 121.361C-539.91 120.3 -541.426 120.072 -543.017 120.224C-543.775 120.3 -544.457 120.224 -545.215 120.148C-545.442 120.148 -545.821 119.845 -545.897 119.618C-545.972 119.39 -545.821 119.012 -545.594 118.86C-545.366 118.633 -545.063 118.481 -544.76 118.481C-544.154 118.481 -543.472 118.557 -542.941 118.708C-541.729 119.087 -540.971 117.951 -541.123 116.89C-541.199 116.435 -541.426 116.056 -541.805 115.98C-542.411 115.905 -543.017 115.829 -543.699 115.829C-546.427 115.829 -549.155 115.753 -551.883 115.829C-553.853 115.905 -555.899 115.753 -557.794 115.147C-559.233 114.692 -560.673 114.616 -562.113 114.541C-562.568 114.541 -562.871 114.313 -562.947 113.783C-562.719 113.328 -562.416 112.874 -562.189 112.419C-563.25 111.585 -564.386 111.282 -565.675 111.813C-567.19 112.419 -568.478 112.192 -569.691 110.979C-570.979 109.767 -572.57 110.146 -574.086 110.525C-575.147 111.964 -576.738 111.434 -578.102 111.434C-578.481 111.434 -578.784 111.055 -579.163 110.828C-578.86 110.07 -578.557 109.464 -578.254 108.857C-578.784 108.554 -579.239 108.251 -579.769 107.948C-578.405 105.902 -575.753 106.963 -574.01 105.447C-576.586 104.387 -579.239 104.614 -581.739 104.008C-582.118 103.932 -582.573 104.083 -582.952 104.159C-584.998 104.538 -587.044 104.841 -589.09 105.22C-589.469 105.296 -589.923 105.22 -590.378 105.22C-590.832 105.144 -591.287 104.993 -591.211 104.462C-591.136 104.083 -590.832 103.705 -590.454 103.553C-590.151 103.326 -589.696 103.326 -589.241 103.25C-587.877 103.25 -586.513 103.25 -585.149 103.25C-581.512 103.174 -577.875 103.477 -574.237 102.719C-572.646 102.416 -570.979 101.962 -569.312 102.568C-568.857 102.719 -568.251 102.644 -567.796 102.568C-565.296 101.962 -562.719 101.583 -560.067 101.28C-559.84 101.28 -559.688 101.128 -559.461 101.052C-558.93 100.825 -558.627 100.067 -558.779 99.4611C-558.93 98.8548 -559.612 98.2486 -560.143 98.476C-561.355 98.9306 -562.643 98.9306 -563.856 98.8548C-564.235 98.8548 -564.689 98.7033 -564.765 98.0213C-563.704 97.112 -562.416 96.5058 -560.901 96.3542C-560.067 96.2784 -559.233 96.1269 -558.476 95.9753C-556.202 95.5964 -554.005 94.9902 -551.656 95.066C-551.125 95.066 -550.595 95.066 -550.064 94.9902C-549.307 94.9144 -548.7 94.3082 -548.852 93.8536C-549.079 93.2473 -549.686 93.3989 -550.14 93.3231C-550.519 93.2473 -550.974 93.1716 -551.353 93.0958C-551.732 91.5045 -551.807 91.3529 -552.792 91.656C-554.005 92.0349 -554.838 91.5045 -555.596 90.8225C-556.051 90.4436 -556.43 89.9132 -556.884 89.4585C-557.794 89.4585 -558.627 89.61 -559.461 89.4585C-560.37 89.3069 -561.204 88.7765 -562.113 88.4734C-563.098 88.1703 -564.083 87.8672 -565.144 87.5641C-566.129 87.3367 -567.114 87.3367 -568.175 87.4125C-570.979 87.6398 -573.783 87.9429 -576.586 87.1852C-577.42 86.9578 -578.254 87.0336 -579.087 86.9578C-579.921 86.8821 -580.83 86.9578 -581.588 86.7305C-582.724 86.3516 -583.861 86.3516 -584.998 86.3516C-586.134 86.3516 -587.271 86.3516 -588.483 86.2759C-588.862 86.2759 -589.317 86.0485 -589.62 85.8212C-589.847 85.6696 -589.999 85.2908 -589.923 85.0634C-589.847 84.9119 -589.469 84.6845 -589.241 84.6845C-588.105 84.7603 -586.968 84.9876 -585.831 85.0634C-584.619 85.215 -583.331 85.1392 -582.118 85.3665C-580.678 85.6696 -579.466 84.9876 -578.102 84.9876C-575.601 84.9876 -573.101 84.6088 -570.676 84.3056C-569.918 84.2299 -569.16 83.7752 -568.175 83.3963C-568.63 82.5628 -569.009 81.8808 -569.463 81.0472C-568.402 79.9864 -567.342 79.0013 -566.357 78.0919C-566.432 77.1068 -566.811 76.5764 -567.645 76.4248C-568.554 76.1975 -569.236 75.8186 -569.463 74.9093C-569.918 73.6211 -571.055 73.0149 -572.04 72.2571C-572.722 71.8024 -573.48 71.4235 -574.162 71.0447C-573.707 69.908 -572.722 70.0596 -571.964 69.9838C-569.691 69.8322 -567.796 68.7714 -565.675 68.1651C-564.765 67.9378 -564.386 67.18 -563.78 66.6496C-563.553 66.4223 -563.25 66.3465 -562.947 66.2707C-561.583 65.9676 -561.128 65.0583 -560.976 63.9216C-561.052 63.7701 -561.128 63.6185 -561.204 63.5427C-562.568 61.7999 -565.068 62.0272 -566.432 60.2843C-566.584 60.057 -567.039 60.057 -567.266 59.9812C-567.948 59.7539 -568.63 59.6023 -569.312 59.2992C-571.055 58.693 -572.873 58.1626 -574.768 57.9352C-576.738 57.7079 -578.632 57.1017 -580.527 56.647C-580.678 56.647 -580.754 56.3439 -580.906 56.1924C-580.451 55.2073 -579.542 55.4346 -578.708 55.3588C-576.965 55.2073 -576.965 55.2073 -575.298 53.4644C-575.98 53.3128 -576.511 53.0097 -577.117 53.0097C-577.723 53.0097 -578.329 53.3128 -578.936 53.4644C-579.39 53.5402 -579.996 53.6917 -580.375 53.0097C-579.921 52.0246 -579.466 50.9637 -578.86 49.524C-582.649 48.7662 -586.134 47.9327 -589.772 46.8718C-589.317 46.7202 -589.165 46.5687 -588.938 46.6445C-588.029 46.796 -587.119 46.9476 -586.21 47.0991C-585.604 47.1749 -584.998 46.8718 -584.695 46.2656C-584.391 45.6594 -584.391 45.0531 -584.922 44.5227C-585.604 43.9165 -586.437 43.386 -587.119 42.7798C-587.271 42.6283 -587.347 42.2494 -587.271 41.9463C-587.271 41.8705 -586.892 41.6432 -586.741 41.7189C-585.301 42.1736 -583.937 42.1736 -582.421 41.6432C-581.436 41.3401 -580.375 41.4916 -579.314 41.4916C-578.708 41.4916 -578.026 41.4916 -577.42 41.4158C-577.041 41.3401 -576.738 41.0369 -576.283 40.6581C-577.42 40.355 -578.329 40.0518 -579.239 39.8245C-579.39 39.7487 -579.693 39.8245 -579.845 39.9003C-580.678 40.355 -581.436 40.0518 -582.27 39.8245C-584.164 39.3699 -586.059 38.6121 -588.029 39.5972C-588.332 39.7487 -588.862 39.673 -589.165 38.8394C-587.953 38.4605 -586.816 37.8543 -585.755 37.1723C-582.8 38.1574 -579.921 38.3848 -577.117 39.2941C-575.601 39.8245 -573.858 39.7487 -572.191 39.3699C-572.646 38.3847 -573.101 37.5512 -573.404 36.8692C-574.54 36.945 -575.601 36.945 -576.586 36.945C-577.041 36.945 -577.344 36.6419 -577.193 36.1114C-575.829 35.3537 -574.313 35.0506 -572.722 35.0506C-571.812 35.0506 -570.827 35.0506 -569.918 35.0506C-569.236 35.0506 -568.63 34.7475 -568.403 34.1412C-568.024 33.3835 -567.721 32.6257 -567.493 31.7921C-567.342 31.0344 -567.342 30.2008 -567.19 29.2915C-568.706 28.0033 -570.221 26.7151 -571.812 25.5027C-572.116 25.2753 -572.57 25.1995 -572.949 25.048C-574.54 24.2902 -576.208 24.7449 -577.799 24.5933C-579.011 25.4269 -580.451 24.5175 -581.739 24.9722C-582.27 25.1238 -582.724 24.6691 -582.876 24.0629C-582.573 23.4567 -582.042 23.2293 -581.36 23.1536C-580.527 23.0778 -579.693 23.002 -578.936 22.7747C-578.784 22.6989 -578.557 22.32 -578.557 22.0169C-578.557 21.8654 -578.784 21.5622 -578.936 21.5622C-579.845 21.3349 -580.754 21.1834 -581.663 21.0318C-581.512 20.5014 -581.285 20.0467 -581.133 19.592C-581.891 19.1374 -583.027 19.2132 -583.103 17.6976C-581.36 18.1523 -579.769 18.6069 -578.178 18.9858C-577.647 19.1374 -577.041 19.3647 -576.662 19.2132C-575.298 18.6827 -573.858 18.7585 -572.419 18.6069C-572.343 17.9249 -572.646 17.6218 -573.025 17.6218C-574.086 17.5461 -575.147 17.4703 -576.132 17.5461C-576.89 17.6218 -577.572 17.8492 -578.102 17.1672C-578.557 16.6367 -579.693 17.0914 -579.769 16.1063C-579.011 14.9696 -577.572 16.0305 -576.511 15.0454C-577.723 14.9696 -578.784 14.8939 -579.769 14.9696C-581.891 15.0454 -583.861 14.4392 -585.907 14.1361C-586.286 14.0603 -586.892 13.9088 -586.968 13.151C-586.21 13.151 -585.528 13.0752 -584.77 13.151C-583.937 13.2268 -583.103 13.3783 -582.345 13.6814C-581.436 14.1361 -580.83 14.1361 -580.148 13.3783C-579.996 13.151 -579.39 13.151 -579.011 13.2268C-578.405 13.3025 -577.799 13.5299 -577.268 13.6814C-576.208 12.7721 -575.298 11.9386 -574.616 11.4081C-572.116 10.9535 -569.918 10.8019 -567.872 10.1957C-565.75 9.51369 -563.629 9.28636 -561.431 9.36213C-560.37 9.36213 -559.233 9.51369 -558.324 9.21058C-556.96 8.75592 -555.672 8.75592 -554.308 8.75592C-553.399 8.75592 -552.414 8.75592 -550.746 8.68014C-552.489 7.99815 -553.474 7.39193 -553.323 6.02794C-551.428 4.89129 -551.428 4.73973 -550.519 5.04284C-548.776 5.57328 -547.033 5.64906 -545.291 5.04284C-544.609 4.81551 -543.851 4.89129 -543.093 4.96706C-541.199 5.04284 -539.38 4.5124 -537.485 4.89128C-536.197 4.28507 -534.909 4.5124 -533.545 4.89128C-533.09 5.04284 -532.484 5.04284 -532.03 4.89128C-530.666 4.36084 -529.377 4.66395 -528.089 5.04284C-526.574 5.4975 -524.982 5.57328 -523.467 5.64905C-522.709 5.64905 -521.951 5.64905 -521.269 5.80061C-518.162 6.55838 -515.055 6.10371 -511.342 6.17949C-512.1 5.64905 -512.403 5.42172 -512.782 5.27017C-514.98 4.28507 -517.177 3.37574 -519.375 2.46642C-520.133 2.16331 -520.89 1.70865 -521.572 1.32976C-521.724 1.25398 -521.8 0.950875 -521.724 0.799321C-521.648 0.647767 -521.497 0.420436 -521.345 0.344659C-520.587 -0.110004 -519.754 -0.0342268 -518.92 0.117327C-518.087 0.268881 -517.329 0.496212 -516.495 0.647766C-514.677 0.950874 -512.782 1.17821 -510.963 1.48131C-508.311 1.93598 -505.659 2.54219 -503.007 2.99685C-501.946 3.22418 -500.885 3.14841 -500.127 2.23908C-499.9 2.01175 -499.597 2.01175 -499.218 1.8602C-498.688 2.76952 -497.93 3.37574 -497.021 3.52729ZM-68.9559 130.226C-69.259 130.151 -69.5621 129.999 -69.8652 129.999C-72.4416 129.772 -75.018 129.544 -77.6702 129.317C-79.4131 129.166 -81.2318 129.393 -82.9746 128.787C-83.3535 128.635 -83.8082 128.559 -84.1871 128.711C-85.6268 129.166 -86.9908 129.014 -88.4306 128.938C-88.961 128.862 -89.4157 128.938 -89.9461 128.938C-90.7039 128.862 -91.3859 128.862 -92.1437 128.711C-93.8108 128.408 -95.4021 129.166 -97.0692 128.862C-98.5847 128.559 -100.176 128.635 -101.767 128.635C-102.677 128.635 -103.662 128.711 -104.571 128.862C-104.798 128.862 -105.177 129.241 -105.177 129.469C-105.177 129.696 -104.95 130.075 -104.723 130.151C-104.116 130.378 -103.434 130.53 -102.601 130.757C-103.889 132.272 -105.556 131.287 -106.844 131.894C-106.617 132.5 -106.011 132.272 -105.632 132.272C-104.42 132.348 -103.131 132.197 -101.919 132.727C-101.54 132.879 -101.085 132.954 -100.706 132.879C-98.6605 132.348 -96.6145 132.879 -94.5685 132.879C-92.4467 132.879 -90.4008 132.879 -88.279 132.879C-88.0517 132.879 -87.8244 132.879 -87.6728 132.879C-86.6877 132.727 -85.6268 132.348 -84.6417 132.348C-83.6566 132.348 -82.5957 132.727 -81.6106 132.803C-81.0802 132.879 -80.474 132.954 -80.0951 132.727C-78.8069 132.045 -77.4429 132.576 -76.1547 132.348C-74.9423 132.121 -73.654 132.272 -72.3658 132.197C-70.9261 132.121 -69.4863 132.121 -68.0465 131.818C-66.0006 131.363 -63.8788 131.363 -61.8329 131.818C-60.9993 132.045 -60.6962 131.59 -60.4688 130.984C-59.1806 131.818 -57.8924 132.197 -56.3769 131.59C-55.3918 131.212 -54.4067 131.59 -53.4216 131.515C-53.0427 130.908 -53.5732 130.681 -53.8763 130.605C-55.9222 130.302 -57.9682 130.302 -60.0142 130.605C-60.1657 130.605 -60.3173 130.908 -60.3931 131.06C-63.1968 131.439 -66.0763 130.908 -68.9559 130.226ZM-93.2803 86.5031C-86.8393 86.5031 -80.3224 86.5031 -73.8814 86.5031C-72.8205 86.5031 -71.8354 86.2758 -70.7745 86.2C-70.3957 86.2 -69.941 86.2 -69.5621 86.2758C-66.4552 86.8062 -63.3484 86.5031 -60.1658 86.3516C-59.3322 86.3516 -58.5744 86.1242 -57.7409 86.3516C-56.8316 86.5789 -55.8464 86.5031 -54.9371 86.4273C-54.2551 86.3516 -53.4974 86.2 -53.0427 85.3665C-55.316 85.4422 -57.4378 84.836 -59.6353 85.2149C-61.6813 85.5938 -63.4999 84.6845 -65.4702 84.3814C-66.8341 84.154 -68.1224 83.9267 -69.4106 84.4571C-69.8652 84.6087 -70.4714 84.6845 -70.9261 84.4571C-72.4417 83.8509 -74.0329 84.0782 -75.5485 84.0025C-77.2914 83.8509 -79.11 84.2298 -80.7771 83.472C-81.0045 83.3205 -81.4591 83.3205 -81.6864 83.3963C-82.9746 83.9267 -84.3386 83.472 -85.6268 83.6236C-86.915 83.8509 -88.0517 83.0931 -89.3399 83.2447C-90.7039 83.3963 -91.9921 83.2447 -93.3561 82.8658C-94.3412 82.5627 -95.4021 82.79 -96.4629 82.7143C-98.812 82.6385 -101.237 83.0174 -103.586 82.1838C-103.889 82.1081 -104.192 82.108 -104.495 82.108C-105.708 82.108 -106.996 82.1838 -108.208 82.4112C-109.345 82.5627 -110.633 81.8049 -111.846 82.4869C-112.073 82.6385 -112.452 82.4869 -112.755 82.4112C-114.498 81.8049 -116.241 81.9565 -117.984 82.4112C-118.363 82.4869 -118.893 82.6385 -119.196 82.4869C-120.333 81.8807 -121.394 82.2596 -122.53 82.5627C-123.136 82.7143 -123.743 82.8658 -124.349 82.9416C-124.955 82.9416 -125.561 82.79 -126.092 82.7143C-126.319 83.3963 -125.94 83.6236 -125.561 83.6994C-120.787 84.6087 -116.013 85.0634 -111.164 85.1391C-109.194 85.1391 -107.223 84.9876 -105.253 85.5938C-104.42 85.8211 -103.434 85.2149 -102.525 85.3665C-101.616 85.518 -100.706 85.8969 -99.7971 85.6696C-99.2667 85.518 -98.812 85.3665 -98.2816 85.2149C-96.8418 86.4273 -95.099 86.5031 -93.2803 86.5031ZM-172.392 141.214C-174.816 141.214 -177.166 140.911 -179.59 141.593C-180.651 141.896 -181.864 141.745 -183 141.745C-184.364 141.82 -185.728 141.82 -187.092 141.896C-187.244 141.896 -187.395 142.123 -187.471 142.351C-187.471 142.502 -187.32 142.805 -187.168 142.805C-186.789 142.881 -186.335 142.957 -185.956 142.957C-183.228 142.881 -180.575 143.184 -177.848 142.427C-176.559 142.123 -175.12 142.351 -173.756 142.351C-173.074 142.351 -172.316 142.199 -171.634 142.123C-171.634 141.972 -171.634 141.745 -171.634 141.593C-171.861 141.441 -172.164 141.214 -172.392 141.214ZM122.987 132.424C121.093 133.182 119.123 132.803 117.153 133.03C116.925 133.03 116.774 133.182 116.395 133.333C116.622 133.788 116.774 134.243 117.077 134.546C117.38 134.773 117.91 134.925 118.213 134.773C119.805 134.243 121.472 134.243 123.063 134.167C124.124 134.091 124.124 134.015 126.17 132.348C124.806 132.348 123.821 132.121 122.987 132.424ZM-161.48 141.669C-162.313 140.835 -163.071 140.532 -163.829 140.608C-164.662 140.684 -165.42 140.835 -166.254 141.063C-167.087 141.29 -167.845 140.532 -168.679 141.063C-168.906 141.214 -169.209 141.29 -169.512 141.366C-169.512 141.441 -169.512 141.593 -169.512 141.669C-167.011 141.669 -164.435 141.669 -161.48 141.669ZM133.293 132.5C134.278 133.333 135.112 133.788 136.173 133.333C137.082 132.954 137.991 132.5 138.976 132.045C137.006 131.894 135.188 131.287 133.293 132.5ZM-133.973 83.3963C-133.745 83.6236 -133.669 83.8509 -133.518 83.9267C-132.23 84.0783 -130.942 84.2298 -129.578 84.3814C-129.426 84.3814 -129.199 84.2298 -129.047 84.154C-128.82 84.0025 -128.592 83.8509 -128.289 83.5478C-130.335 83.472 -132.078 81.9565 -133.973 83.3963ZM130.414 131.818C129.732 131.742 128.974 131.666 128.519 132.424C129.656 133.485 129.656 133.485 131.55 133.333C131.323 132.576 131.171 131.969 130.414 131.818ZM217.709 130.151C217.633 130.151 217.557 130.302 217.557 130.378C217.633 130.53 217.784 130.833 217.86 130.833C218.466 130.757 219.073 130.605 219.679 130.454C220.134 130.378 220.664 130.378 221.194 130.378C221.119 130.226 221.119 129.999 221.043 129.848C219.906 129.923 218.77 130.075 217.709 130.151Z" fill="#074365"/>
<path d="M95.7832 113.859C97.2987 114.616 98.6628 114.844 100.178 114.768C105.786 114.692 111.393 114.768 117.077 114.692C117.38 114.692 117.683 114.692 117.986 114.692C119.501 114.692 120.79 113.556 122.533 114.01C123.897 114.389 125.412 114.162 126.852 114.162C127.306 114.162 127.761 114.086 128.67 113.934C127.761 113.555 127.231 113.48 126.852 113.177C125.109 112.116 123.366 111.888 121.244 112.116C118.289 112.495 115.182 112.192 112.227 112.267C111.166 112.267 110.181 112.495 109.12 112.57C108.817 112.57 108.438 112.798 108.211 112.722C106.316 111.813 104.573 112.874 102.679 112.798C100.936 112.798 99.1174 112.798 97.3745 112.874C96.7683 112.874 96.1621 113.025 95.7832 113.859Z" fill="#074365"/>
<path d="M93.207 145.761C93.207 145.685 93.2069 145.458 93.1312 145.458C91.3883 144.776 89.797 143.942 87.8268 144.624C86.387 145.155 84.7199 144.927 83.2802 145.382C82.6739 145.609 81.9162 145.155 81.2342 144.927C80.1733 144.624 79.1882 144.473 77.9 144.7C75.9298 145.079 73.808 145.079 71.8378 144.094C70.7012 143.487 69.2614 143.487 67.8974 143.184C66.8365 143.866 68.5794 145.382 67.1396 145.988C67.6701 146.064 68.1248 146.064 68.6552 146.064C73.2018 146.064 77.8242 146.064 82.3709 146.064C83.1286 146.064 83.8864 146.064 84.4926 145.837C85.2504 145.609 85.8566 145.685 86.6144 145.837C88.433 146.443 91.4641 146.215 93.207 145.761Z" fill="#074365"/>
<path d="M342.969 13.6813C343.044 12.9236 343.12 12.3174 343.12 11.7869C343.12 11.1049 342.514 10.3471 341.908 10.1956C340.241 9.89249 335.012 10.6503 333.496 11.4838C333.193 11.6354 333.042 12.09 332.814 12.5447C333.875 13.1509 334.785 13.6813 335.846 13.6813C338.195 13.7571 340.544 13.6813 342.969 13.6813Z" fill="#074365"/>
<path d="M327.51 142.123C327.661 140.911 327.434 140.38 326.752 140.608C325.691 140.987 324.782 140.759 323.797 140.684C322.13 140.456 320.463 140.608 318.796 140.532C317.128 140.532 315.537 140.381 313.87 140.077C311.748 139.699 309.551 139.471 307.277 140.835C309.172 141.669 310.839 141.744 312.506 141.82C313.946 141.896 315.386 141.82 316.901 141.896C318.038 141.896 319.174 142.123 320.311 142.123C321.448 142.123 322.584 141.896 323.721 141.896C324.858 141.82 326.07 141.972 327.51 142.123Z" fill="#074365"/>
<path d="M153.526 141.896C152.995 141.82 152.54 141.745 152.01 141.745C147.842 141.745 143.675 141.745 139.507 141.82C137.612 141.82 137.537 141.972 135.945 143.488C136.4 143.563 136.779 143.639 137.158 143.639C139.355 143.639 141.553 143.639 143.675 143.639C143.902 143.639 144.129 143.639 144.281 143.639C146.933 143.033 149.585 142.957 152.313 142.957C152.919 142.957 153.45 142.654 153.526 141.896Z" fill="#074365"/>
<path d="M210.435 140.987C208.237 140.077 206.418 139.85 204.6 139.85C202.933 139.926 201.266 139.926 199.674 139.32C199.295 139.168 198.462 139.244 198.235 139.547C197.401 140.608 196.264 140.456 195.128 140.532C194.9 140.532 194.749 140.684 194.521 140.759C195.507 141.896 196.795 141.063 197.931 141.441C201.114 140.911 204.297 141.366 207.555 141.138C208.313 141.138 209.146 141.063 210.435 140.987Z" fill="#074365"/>
<path d="M10.9131 145.155C11.8224 145.837 12.9591 145.609 13.9442 145.534C17.1268 145.458 20.3095 145.685 23.4921 145.306C23.2648 144.473 22.8101 144.245 22.2796 144.321C20.5368 144.473 18.7939 143.791 17.0511 144.17C16.3691 144.321 15.6113 144.094 14.9293 143.866C13.8684 143.563 12.8833 143.488 11.8224 143.715C11.5193 143.866 11.2162 144.245 10.9131 145.155Z" fill="#074365"/>
<path d="M430.188 112.873C427.308 111.206 424.126 111.661 421.019 111.661C419.882 112.267 418.594 111.888 417.381 112.04C416.245 112.267 415.108 112.04 414.047 111.964C413.896 111.964 413.744 112.343 413.365 112.798C416.624 112.798 419.655 112.873 422.686 112.873C424.126 112.873 425.565 112.798 427.005 113.328C427.763 113.555 428.672 113.48 429.506 113.404C429.657 113.404 429.885 113.101 430.188 112.873Z" fill="#074365"/>
<path d="M346.909 141.896C346.303 141.82 345.924 141.82 345.545 141.745C344.181 141.517 342.666 141.82 341.453 140.76C340.468 140.835 339.559 140.608 338.649 140.002C337.816 139.471 336.755 140.381 336.755 141.442C336.755 141.669 336.982 141.972 337.21 142.199C337.361 142.351 337.588 142.427 337.816 142.351C339.862 142.275 341.908 143.033 343.954 142.502C344.56 142.351 345.318 142.806 346.075 142.881C346.379 142.881 346.757 142.654 346.909 141.896Z" fill="#074365"/>
<path d="M170.575 133.106C171.03 133.258 171.485 133.561 171.939 133.561C175.349 133.636 178.759 133.561 182.245 133.561C181.26 132.5 181.184 132.424 180.654 132.424C179.517 132.348 178.38 132.424 177.244 132.348C175.88 132.272 174.516 132.576 173.227 131.969C172.242 131.59 171.485 132.424 170.575 133.106Z" fill="#074365"/>
<path d="M255.143 105.523C255.521 105.902 255.673 106.281 255.9 106.357C256.128 106.432 256.507 106.432 256.81 106.357C258.174 105.902 259.386 106.811 260.75 106.66C261.963 106.584 263.023 105.902 264.387 106.432C265.448 106.887 266.812 106.584 268.1 106.508C268.252 106.508 268.479 106.129 268.631 105.902C268.404 105.826 268.025 105.523 267.873 105.599C267.267 105.826 266.736 105.826 266.054 105.599C265.524 105.372 264.842 105.447 264.236 105.296C262.948 104.993 261.887 105.978 260.598 105.675C259.538 105.372 258.325 105.447 257.189 105.371C256.582 105.371 255.976 105.447 255.143 105.523Z" fill="#074365"/>
<path d="M305.535 141.29C305.383 140.684 305.383 140.532 305.383 140.532C304.398 140.305 303.413 140.078 302.504 139.774C301.443 139.471 300.458 139.623 299.473 139.85C298.639 140.002 297.805 139.85 296.972 139.926C296.138 139.926 295.305 140.002 294.017 140.153C297.881 141.972 301.67 140.76 305.535 141.29Z" fill="#074365"/>
<path d="M132.005 115.677C134.506 116.587 136.627 116.89 138.825 116.587C139.279 116.511 139.81 116.284 140.189 116.056C140.34 115.905 140.416 115.526 140.416 115.223C140.416 115.071 140.113 114.844 139.961 114.844C137.915 114.844 135.794 114.768 133.748 114.844C133.293 114.92 132.838 115.298 132.005 115.677Z" fill="#074365"/>
<path d="M118.971 116.435C115.106 115.526 114.955 115.526 111.166 116.511C111.621 116.738 111.848 117.041 112.151 117.041C114.197 117.42 116.243 117.344 118.365 117.041C118.592 117.041 118.744 116.662 118.971 116.435Z" fill="#074365"/>
<path d="M372.143 120.375C371.688 120.451 371.158 120.603 370.703 120.754C370.552 120.83 370.4 121.057 370.324 121.209C370.324 121.36 370.476 121.588 370.551 121.588C372.067 121.663 373.431 122.497 375.022 121.815C375.629 121.512 376.614 122.042 377.371 122.118C377.523 122.118 377.75 121.891 377.75 121.739C377.75 121.588 377.599 121.285 377.523 121.285C375.78 120.981 373.962 120.678 372.143 120.375Z" fill="#074365"/>
<path d="M420.943 108.478C421.171 108.63 421.474 108.857 421.701 108.933C422.989 109.16 424.278 109.615 425.49 110.146C425.869 110.297 426.475 110.221 426.93 109.994C427.157 109.842 427.309 109.312 427.384 109.009C427.384 108.857 426.93 108.554 426.702 108.554C425.49 108.478 424.278 108.403 423.065 107.948C422.535 107.796 421.853 107.948 421.246 107.948C421.171 108.1 421.095 108.327 420.943 108.478Z" fill="#074365"/>
<path d="M403.818 107.417C403.514 107.948 403.439 108.175 403.287 108.403C403.363 108.554 403.363 108.706 403.363 108.781C404.272 109.236 405.182 109.842 406.242 109.615C406.621 109.539 406.849 109.16 407.227 108.857C408.137 109.16 409.122 109.463 410.183 109.767C409.501 108.099 409.501 108.099 406.545 107.645C406.394 107.948 406.167 108.327 406.015 108.706C405.788 108.63 404.196 107.721 403.818 107.417Z" fill="#074365"/>
<path d="M131.02 144.018C128.747 143.639 124.503 143.487 123.215 143.79C123.064 143.79 122.76 144.094 122.836 144.169C122.912 144.397 123.139 144.775 123.291 144.775C124.958 144.927 126.549 145.079 128.216 144.624C129.05 144.321 129.883 144.245 131.02 144.018Z" fill="#074365"/>
<path d="M181.108 109.388C183.685 110.676 184.594 110.752 186.868 109.918C185.655 108.403 184.443 108.251 181.108 109.388Z" fill="#074365"/>
<path d="M302.049 14.4391C302.503 14.2117 302.958 14.136 303.185 13.8329C303.488 13.3024 303.716 12.6962 303.867 12.09C303.943 11.7111 303.488 11.1807 303.185 11.1807C302.276 11.1807 301.518 11.4838 301.063 12.2415C300.836 12.6204 300.912 13.3024 301.063 13.6813C301.139 14.0602 301.67 14.2117 302.049 14.4391Z" fill="#074365"/>
<path d="M236.047 106.281C238.017 106.508 239.987 106.811 241.882 106.357C241.958 106.357 242.033 106.054 242.109 105.826C242.109 105.75 242.033 105.599 241.958 105.599C239.912 105.068 237.941 105.144 236.047 106.281Z" fill="#074365"/>
<path d="M401.771 12.0143C400.483 11.7112 399.346 11.3323 398.285 11.3323C397.3 11.3323 396.391 11.7869 395.33 12.09C397.603 13.3025 397.603 13.3025 401.771 12.0143Z" fill="#074365"/>
<path d="M504.904 62.7848C505.511 63.3153 505.738 63.6942 506.041 63.7699C506.647 63.9215 507.329 64.0731 507.86 63.8457C509.375 63.2395 510.891 63.3911 512.406 63.3153C512.709 63.3153 512.937 63.1637 513.922 62.8606C510.588 62.5575 507.935 62.5575 504.904 62.7848Z" fill="#074365"/>
<path d="M109.348 117.117C107.833 116.587 106.469 115.829 104.801 116.056C104.498 116.132 104.195 116.208 103.968 116.435C103.892 116.511 103.892 116.89 103.968 116.965C104.802 117.42 105.559 117.875 106.544 117.723C107.529 117.496 108.439 117.269 109.348 117.117Z" fill="#074365"/>
<path d="M105.332 144.245C106.241 144.851 106.544 145.079 106.848 145.23C108.287 145.761 109.727 145.685 111.167 145.382C111.318 145.382 111.47 145.079 111.47 144.927C111.47 144.776 111.318 144.472 111.167 144.472C109.5 144.094 107.757 144.397 105.332 144.245Z" fill="#074365"/>
<path d="M248.854 105.75C249.232 106.66 249.839 106.584 250.293 106.508C251.43 106.432 252.567 106.811 253.628 106.205C253.779 106.129 253.855 105.902 253.931 105.675C251.809 105.144 251.127 105.144 248.854 105.75Z" fill="#074365"/>
<path d="M430.112 112.873C431.628 113.404 434.204 113.555 436.099 113.176C435.871 112.949 435.72 112.57 435.492 112.57C433.901 112.267 432.234 112.191 430.567 112.57C430.415 112.494 430.34 112.722 430.112 112.873Z" fill="#074365"/>
<path d="M362.822 120.83C361.533 119.314 360.018 119.845 358.654 119.921C358.199 119.921 357.669 120.148 357.745 120.982C359.412 121.133 361.003 121.285 362.822 120.83Z" fill="#074365"/>
<path d="M79.416 114.01C81.2347 114.086 82.9017 114.465 84.7962 113.48C82.6744 112.798 81.3104 112.722 80.0222 113.176C79.7949 113.252 79.7191 113.631 79.416 114.01Z" fill="#074365"/>
<path d="M341.529 112.191C340.089 110.828 338.497 111.055 337.133 110.6C336.906 110.524 336.527 110.979 336.148 111.282C337.74 112.495 339.407 112.343 341.529 112.191Z" fill="#074365"/>
<path d="M117.153 144.548C115.941 144.094 114.804 144.094 113.592 144.473C113.44 144.473 113.364 144.776 113.364 144.927C113.364 145.003 113.44 145.155 113.516 145.155C114.728 145.685 115.865 145.609 117.077 145.155C117.153 145.155 117.077 144.851 117.153 144.548Z" fill="#074365"/>
<path d="M372.143 113.404C374.113 114.768 375.477 113.858 376.841 113.252C375.174 112.722 375.022 112.722 372.143 113.404Z" fill="#074365"/>
<path d="M384.949 143.563C386.692 143.563 388.359 143.563 390.102 143.563C390.102 143.487 390.102 143.412 390.178 143.26C389.269 143.109 388.359 142.957 387.526 142.654C386.389 142.351 385.707 143.184 384.949 143.563Z" fill="#074365"/>
<path d="M188.838 141.214C188.838 140.987 188.838 140.76 188.687 140.608C188.156 139.85 187.323 139.699 186.489 140.002C186.338 140.078 186.11 140.608 186.186 140.684C186.716 141.366 187.474 141.745 188.384 141.593C188.535 141.593 188.687 141.366 188.838 141.214Z" fill="#074365"/>
<path d="M442.994 113.025C442.767 112.873 442.463 112.57 442.312 112.57C441.099 113.025 439.887 112.873 438.675 112.57C438.523 112.57 438.296 112.949 438.068 113.101C438.22 113.177 438.371 113.404 438.523 113.404C439.963 113.404 441.402 113.404 442.842 113.404C442.918 113.328 442.918 113.177 442.994 113.025Z" fill="#074365"/>
<path d="M320.614 11.5596C321.751 12.5447 322.13 12.6204 322.963 11.8627C323.115 11.7111 323.266 11.2565 323.191 11.0291C323.115 10.8018 322.736 10.5745 322.509 10.5745C321.751 10.6502 320.993 10.8776 320.614 11.5596Z" fill="#074365"/>
<path d="M346.606 82.6385C347.212 82.7143 347.894 82.0323 347.667 81.5019C347.591 81.1987 347.136 80.8956 346.833 80.8199C346.379 80.6683 345.848 80.8199 345.621 81.3503C345.469 81.8807 346 82.6385 346.606 82.6385Z" fill="#074365"/>
<path d="M333.269 140.987C332.814 141.138 332.36 141.214 332.056 141.366C331.905 141.441 331.905 141.669 331.829 141.82C331.829 141.896 331.905 142.048 331.981 142.048C332.36 142.199 332.738 142.351 333.117 142.351C334.027 142.427 334.784 141.972 334.406 141.669C334.102 141.366 333.648 141.214 333.269 140.987Z" fill="#074365"/>
<path d="M383.13 121.361C381.463 120.906 380.326 120.982 379.114 121.361C378.962 121.436 378.887 121.739 378.962 121.891C379.038 122.043 379.265 122.118 379.417 122.194C379.493 122.27 379.644 122.27 379.72 122.27C380.705 121.967 381.69 121.739 383.13 121.361Z" fill="#074365"/>
<path d="M246.504 106.432C245.898 105.675 245.216 105.447 244.458 105.372C243.776 105.296 243.17 105.675 243.321 106.054C243.549 106.508 243.927 106.584 244.306 106.584C244.988 106.584 245.67 106.508 246.504 106.432Z" fill="#074365"/>
<path d="M80.6279 115.905C82.5224 117.269 82.5224 117.269 84.341 117.041C83.3559 115.753 81.9161 116.208 80.6279 115.905Z" fill="#074365"/>
<path d="M388.89 113.859C390.557 115.298 392.148 114.238 392.906 115.45C393.436 114.92 393.739 114.465 393.209 114.313C392.678 114.086 391.996 114.162 391.39 114.086C390.86 114.01 390.254 114.01 388.89 113.859Z" fill="#074365"/>
<path d="M132.535 112.722C133.975 112.949 134.96 113.177 135.945 112.57C134.657 111.358 134.354 111.282 132.535 112.722Z" fill="#074365"/>
<path d="M320.993 110.752C322.206 110.979 323.115 111.813 324.479 111.358C323.797 110.297 322.963 109.842 321.827 109.994C321.599 110.07 321.448 110.373 320.993 110.752Z" fill="#074365"/>
<path d="M2.42676 145.306C3.26031 145.533 4.1696 145.761 5.00315 145.988C5.07893 145.988 5.2305 145.988 5.30628 145.988C5.53361 145.836 5.68517 145.609 5.83673 145.382C5.83673 145.382 5.60938 145.003 5.5336 145.003C4.5485 145.003 3.5634 145.003 2.50252 145.003C2.50252 145.079 2.42676 145.23 2.42676 145.306Z" fill="#074365"/>
<path d="M143.447 115.298C144.281 115.298 144.963 115.298 145.645 115.298C145.796 115.298 145.948 115.071 146.024 114.919C146.024 114.768 145.948 114.465 145.796 114.465C144.735 114.01 144.432 114.086 143.447 115.298Z" fill="#074365"/>
<path d="M172.849 141.29C172.092 141.063 171.334 140.759 170.576 140.608C170.349 140.532 170.046 140.835 169.818 140.987C169.97 141.214 170.121 141.593 170.273 141.669C171.107 141.745 171.864 141.669 172.698 141.669C172.774 141.517 172.849 141.441 172.849 141.29Z" fill="#074365"/>
<path d="M402.908 112.722C403.514 112.798 404.121 112.873 404.651 112.873C405.257 112.873 405.636 112.419 405.409 112.191C405.106 111.964 404.727 111.737 404.348 111.737C403.742 111.585 403.136 111.737 402.908 112.722Z" fill="#074365"/>
<path d="M501.797 62.6333C501.494 62.7091 501.191 62.7849 500.964 62.9364C500.812 63.0122 500.736 63.3911 500.812 63.4668C501.191 63.9973 502.252 63.9973 502.706 63.4668C502.782 63.3911 502.782 63.0122 502.631 62.9364C502.403 62.8606 502.1 62.7849 501.797 62.6333Z" fill="#074365"/>
<path d="M17.127 157.127C18.0363 158.264 18.8699 158.264 19.855 157.809C19.2487 156.749 18.4152 156.749 17.127 157.127Z" fill="#074365"/>
<path d="M449.132 113.176C447.768 112.873 446.404 112.798 445.116 113.252C446.404 113.555 447.768 113.631 449.132 113.176Z" fill="#074365"/>
</g>
</svg>
