<?xml version="1.0" encoding="utf-8"?>
<!-- Generator: Adobe Illustrator 24.0.1, SVG Export Plug-In . SVG Version: 6.00 Build 0)  -->
<svg version="1.1" id="Layer_1" focusable="false" xmlns="http://www.w3.org/2000/svg" xmlns:xlink="http://www.w3.org/1999/xlink"
	 x="0px" y="0px" viewBox="0 0 512 512" style="enable-background:new 0 0 512 512;" xml:space="preserve">
<style type="text/css">
	.st0{fill:#404040;}
</style>
<path class="st0" d="M496,288H16c-8.8,0-16,7.2-16,16v32c0,8.8,7.2,16,16,16h480c8.8,0,16-7.2,16-16v-32
	C512,295.2,504.8,288,496,288z M496,160H16c-8.8,0-16,7.2-16,16v32c0,8.8,7.2,16,16,16h480c8.8,0,16-7.2,16-16v-32
	C512,167.2,504.8,160,496,160z"/>
</svg>
