<svg width="40" height="36" viewBox="0 0 40 36" fill="none" xmlns="http://www.w3.org/2000/svg">
<path d="M20.2 30.5068L20 30.703L19.78 30.5068C10.28 22.0512 4 16.4599 4 10.7902C4 6.86648 7 3.92371 11 3.92371C14.08 3.92371 17.08 5.88556 18.14 8.55368H21.86C22.92 5.88556 25.92 3.92371 29 3.92371C33 3.92371 36 6.86648 36 10.7902C36 16.4599 29.72 22.0512 20.2 30.5068ZM29 0C25.52 0 22.18 1.5891 20 4.08065C17.82 1.5891 14.48 0 11 0C4.84 0 0 4.72807 0 10.7902C0 18.1864 6.8 24.2485 17.1 33.4104L20 36L22.9 33.4104C33.2 24.2485 40 18.1864 40 10.7902C40 4.72807 35.16 0 29 0Z" fill="white"/>
</svg>
