<svg width="40" height="40" viewBox="0 0 40 40" fill="none" xmlns="http://www.w3.org/2000/svg">
<path d="M22 0.0999999V4.14C29.9 5.12 36 11.84 36 20C36 26.42 32.16 32 26.56 34.56L22 30V40H32L29.56 37.56C35.82 34.14 40 27.52 40 20C40 9.64 32.1 1.1 22 0.0999999ZM18 0C14.1 0.4 10.4 1.92 7.36 4.42L10.2 7.26C12.46 5.5 15.16 4.4 18 4V0ZM4.4 7.36C1.92 10.4 0.4 14.1 0 18H4C4.38 15.16 5.5 12.46 7.26 10.2L4.4 7.36ZM8 12V16H14V18H12C9.8 18 8 19.8 8 22V28H18V24H12V22H14C16.22 22 18 20.22 18 18V16C18 13.8 16.22 12 14 12H8ZM20 12V22H26V28H30V22H32V18H30V12H26V18H24V12H20ZM0 22C0.4 25.9 1.94 29.6 4.44 32.64L7.28 29.8C5.52 27.54 4.4 24.84 4 22H0ZM10.22 32.74L7.36 35.58C10.4 38.06 14.1 39.6 18 40V36C15.16 35.62 12.48 34.5 10.22 32.74Z" fill="white"/>
</svg>
