<svg width="31" height="31" viewBox="0 0 31 31" fill="none" xmlns="http://www.w3.org/2000/svg">
<path d="M21.1712 4.88498L21.072 4.78581C20.2645 3.90748 19.9103 2.78831 20.1228 1.66915L20.2503 0.833313H17.5728L17.4878 1.44248C17.2045 3.36915 17.8703 5.28165 19.3295 6.71248L19.4287 6.79748C20.2362 7.67581 20.5903 8.79498 20.3778 9.91415L20.222 10.75H22.9278L23.0128 10.1408C23.3103 8.21415 22.6303 6.30165 21.1712 4.88498ZM26.8378 4.88498L26.7387 4.78581C25.9312 3.90748 25.577 2.78831 25.7895 1.66915L25.917 0.833313H23.2395L23.1545 1.44248C22.8712 3.36915 23.537 5.28165 24.9962 6.71248L25.0953 6.79748C25.9028 7.67581 26.257 8.79498 26.0445 9.91415L25.8887 10.75H28.5945L28.6795 10.1408C28.977 8.21415 28.297 6.30165 26.8378 4.88498ZM11.9203 5.08331L1.74866 14.7025C0.898659 15.4958 0.416992 16.615 0.416992 17.7908V26.3333C0.416992 28.685 2.31533 30.5833 4.66699 30.5833H13.5212H16.0003H24.1462C25.1237 30.5833 25.917 29.79 25.917 28.8125C25.917 27.835 25.1237 27.0416 24.1462 27.0416H16.0003V25.625H26.9795C27.957 25.625 28.7503 24.8316 28.7503 23.8541C28.7503 22.8766 27.957 22.0833 26.9795 22.0833H16.0003V20.6666H28.3962C29.3737 20.6666 30.167 19.8733 30.167 18.8958C30.167 17.9183 29.3737 17.125 28.3962 17.125H16.0003V15.7083H25.5628C26.5403 15.7083 27.3337 14.915 27.3337 13.9375C27.3337 12.96 26.5403 12.1666 25.5628 12.1666H11.552C12.4587 10.5941 13.6487 8.51165 13.6628 8.46915C13.7903 8.24248 13.8612 8.00165 13.8612 7.71831C13.8612 7.34998 13.7337 7.00998 13.4928 6.72665C13.4787 6.66998 11.9203 5.08331 11.9203 5.08331Z" fill="#404040"/>
</svg>
