<svg width="34" height="34" viewBox="0 0 34 34" fill="none" xmlns="http://www.w3.org/2000/svg">
<path d="M16.9998 22.6667C18.4306 22.6667 19.7056 22.1142 20.7114 21.25H13.2881C14.2939 22.1142 15.5689 22.6667 16.9998 22.6667Z" fill="#404040"/>
<path d="M12.1263 19.8333H21.8871C22.2555 19.1958 22.5105 18.4733 22.6096 17.7083H11.418C11.503 18.4733 11.7438 19.1958 12.1263 19.8333Z" fill="#404040"/>
<path d="M16.9998 11.3333C15.5689 11.3333 14.2939 11.8858 13.2881 12.75H20.7114C19.7056 11.8858 18.4306 11.3333 16.9998 11.3333Z" fill="#404040"/>
<path d="M12.1268 14.1667C11.7585 14.8042 11.5035 15.5267 11.4043 16.2917H22.596C22.4968 15.5267 22.256 14.8042 21.8735 14.1667H12.1268Z" fill="#404040"/>
<path d="M26.9167 4.25H7.08333C5.525 4.25 4.25 5.525 4.25 7.08333V26.9167C4.25 28.475 5.525 29.75 7.08333 29.75H26.9167C28.475 29.75 29.75 28.475 29.75 26.9167V7.08333C29.75 5.525 28.475 4.25 26.9167 4.25ZM17 25.5C12.3108 25.5 8.5 21.6892 8.5 17C8.5 12.3108 12.3108 8.5 17 8.5C21.6892 8.5 25.5 12.3108 25.5 17C25.5 21.6892 21.6892 25.5 17 25.5Z" fill="#404040"/>
</svg>
