<svg width="24" height="28" viewBox="0 0 24 28" fill="none" xmlns="http://www.w3.org/2000/svg">
<path d="M20.0187 8.33333L12.0003 0.329163L3.98199 8.33333C1.77199 10.5433 0.666992 13.49 0.666992 16.3233C0.666992 19.1567 1.77199 22.1458 3.98199 24.3558C6.19199 26.5658 9.09616 27.685 12.0003 27.685C14.9045 27.685 17.8087 26.5658 20.0187 24.3558C22.2287 22.1458 23.3337 19.1567 23.3337 16.3233C23.3337 13.49 22.2287 10.5433 20.0187 8.33333ZM3.50033 16.8333C3.51449 14 4.37866 12.2008 5.99366 10.6L12.0003 4.46583L18.007 10.6708C19.622 12.2575 20.4862 14 20.5003 16.8333H3.50033Z" fill="#404040"/>
</svg>
