<svg width="121" height="255" viewBox="0 0 121 255" fill="none" xmlns="http://www.w3.org/2000/svg">
<path d="M65.3186 255C48.1858 255 33.1947 247.562 20.3451 231.625C6.42478 215.687 0 194.438 0 168.938C0 146.625 11.7788 113.688 36.4071 68C59.9646 22.3125 78.1681 0 89.9469 0C96.3717 0 99.5841 3.1875 99.5841 10.625C99.5841 12.75 93.1593 27.625 79.2389 55.25C65.3186 82.875 58.8938 104.125 58.8938 120.062C58.8938 131.75 66.3894 142.375 82.4513 149.812C97.4425 157.25 108.15 165.75 113.504 174.25C118.858 182.75 121 191.25 121 200.813C121 217.813 115.646 231.625 106.009 242.25C94.2301 249.687 81.3805 255 65.3186 255Z" fill="#4BA6C8"/>
</svg>
